<?xml version="1.0" encoding="UTF-8"?>
<svg version="1.1" xmlns="http://www.w3.org/2000/svg" width="512" height="512">
<path d="M0 0 C0.61810547 0.39203613 1.23621094 0.78407227 1.87304688 1.18798828 C3.32768827 2.13469334 4.74580887 3.1370583 6.15625 4.1484375 C9.49494924 5.72504547 11.02712962 5.37160976 14.546875 4.27734375 C17.34758143 2.82190573 19.96576354 1.12328183 22.609375 -0.59765625 C62.59070583 -25.69148916 107.40387114 -38.50715143 153.546875 -46.72265625 C154.44390137 -46.88926758 155.34092773 -47.05587891 156.26513672 -47.22753906 C177.36158776 -51.1159519 198.52309675 -53.1997307 217.01953125 -40.62109375 C229.84139923 -30.98982971 236.95477862 -17.64585986 240.0808897 -2.06026268 C240.62780682 1.85701564 240.69499458 5.70579048 240.69404602 9.65170288 C240.69772271 10.48014603 240.7013994 11.30858918 240.7051875 12.16213667 C240.71617557 14.93020035 240.7200598 17.69822642 240.72387695 20.46630859 C240.73014509 22.45418923 240.7367922 24.4420687 240.74378967 26.4299469 C240.76478381 32.94938345 240.77518498 39.46882013 240.78515625 45.98828125 C240.78920498 48.23486976 240.79332194 50.48145815 240.79750633 52.72804642 C240.81654463 63.27968284 240.83078077 73.8313123 240.8391183 84.38296258 C240.848898 96.5578335 240.87524246 108.73252296 240.91561919 120.90732992 C240.94577398 130.32321082 240.96058642 139.73903965 240.96389931 149.1549679 C240.96624971 154.77676811 240.9752097 160.39837416 241.00036049 166.02012253 C241.02363615 171.3077596 241.02787637 176.59507454 241.01759911 181.88274956 C241.01710358 183.82092421 241.02342884 185.75911472 241.03715515 187.69724083 C241.05487677 190.34821783 241.04776694 192.99803892 241.03462219 195.64901733 C241.05107606 196.79271792 241.05107606 196.79271792 241.06786233 197.95952356 C241.00223695 203.46106224 239.57899845 207.66744782 236.546875 212.27734375 C231.66570985 216.92040329 227.57986894 217.63462388 221.05078125 217.55859375 C216.09640945 217.00209645 213.40762194 214.25440784 210.234375 210.65234375 C207.29373021 206.51365849 207.40206104 203.33005849 207.40884399 198.39073181 C207.40602271 197.56641192 207.40320143 196.74209204 207.40029466 195.89279276 C207.39192339 193.11463567 207.39060823 190.3365183 207.38916016 187.55834961 C207.38449366 185.57268155 207.37935037 183.58701456 207.37376404 181.60134888 C207.36246733 177.31629982 207.35404063 173.03125778 207.34764481 168.74619865 C207.33697846 161.96794407 207.31673604 155.18973965 207.29452515 148.41151428 C207.23255896 129.13349715 207.17861851 109.85548242 207.14550781 90.57739258 C207.1271522 79.93704325 207.09820172 69.29677739 207.0575031 58.65648943 C207.03644387 53.02515707 207.0209774 47.39392989 207.01869583 41.76255608 C207.01654552 36.4610153 207.00063684 31.15969327 206.97430611 25.85821915 C206.96712548 23.91565343 206.96500613 21.97306117 206.96840858 20.03048515 C206.97232147 17.37101369 206.95779019 14.7122346 206.93887329 12.05284119 C206.94440299 11.29055849 206.94993268 10.5282758 206.95562994 9.74289364 C206.87244926 2.9319741 205.42799733 -4.39976044 200.734375 -9.59765625 C200.27417969 -10.13132813 199.81398438 -10.665 199.33984375 -11.21484375 C192.53590298 -16.9366763 184.88453148 -16.32537255 176.546875 -15.72265625 C170.85885496 -15.15880834 165.23682471 -14.20917063 159.609375 -13.22265625 C158.44992874 -13.02391907 158.44992874 -13.02391907 157.26705933 -12.82116699 C116.91564898 -5.86642546 75.34584708 5.31512518 40.76052147 27.92772156 C38.546875 29.27734375 38.546875 29.27734375 35.80185217 30.59594053 C29.92624836 33.61383644 29.92624836 33.61383644 26.53284848 39.01380932 C26.15113267 42.46054348 26.12531852 45.760084 26.21302795 49.22718811 C26.20236799 50.53567244 26.19170803 51.84415678 26.18072504 53.19229215 C26.15261645 56.81469087 26.19278336 60.43358257 26.24424636 64.05560553 C26.28771092 67.96501254 26.26744656 71.87415105 26.25482178 75.78370667 C26.24147842 82.55515821 26.26786968 89.3255142 26.3209095 96.09675789 C26.39723503 105.89316531 26.40895719 115.68883092 26.40425163 125.48549598 C26.39799155 141.38874038 26.43784113 157.2915078 26.50952148 173.19458008 C26.57892559 188.62653053 26.63666015 204.05840802 26.67163086 219.49047852 C26.67487772 220.91638917 26.67487772 220.91638917 26.67819018 222.3711061 C26.70130426 232.7486288 26.71904199 243.12614863 26.72970486 253.50369167 C26.73064914 254.41568213 26.73159341 255.32767259 26.73256631 256.26729913 C26.7362508 259.91301397 26.73984961 263.55872865 26.74272948 267.20444422 C26.75125584 277.87841618 26.77665056 288.55202616 26.83255702 299.22586047 C26.867146 305.91964969 26.88872283 312.61339222 26.90006555 319.30726106 C26.90725799 323.17038265 26.92132718 327.03318234 26.95303154 330.89618683 C26.98735216 335.08241532 26.9910038 339.26811437 26.99183655 343.45448303 C27.00710028 344.6773346 27.02236402 345.90018617 27.03809029 347.16009384 C27.01175849 353.49654757 26.90834139 357.51407223 22.546875 362.27734375 C18.14253981 365.9629799 15.06285999 366.82542371 9.359375 366.77734375 C8.14894531 366.78765625 6.93851563 366.79796875 5.69140625 366.80859375 C-3.6232074 366.04935089 -11.47412983 361.32557677 -19.078125 356.27734375 C-59.82331704 330.2788734 -108.1560632 318.22462651 -155.64428711 312.10107422 C-175.22244875 309.50808792 -192.53505189 303.02618913 -205.640625 287.65234375 C-219.25053426 269.63436671 -219.90147474 251.3737342 -219.84130859 229.68554688 C-219.84537955 227.21361561 -219.85072435 224.74168617 -219.85723877 222.26976013 C-219.86944559 216.28180751 -219.86773188 210.29401174 -219.85900085 204.30606544 C-219.85219515 199.43475222 -219.85131997 194.56347056 -219.8545723 189.69215393 C-219.855032 188.99592652 -219.85549169 188.2996991 -219.85596532 187.58237389 C-219.85692461 186.16751459 -219.85789725 184.75265531 -219.8588831 183.33779603 C-219.86741518 170.1049355 -219.85763725 156.87213756 -219.841482 143.63928729 C-219.8280808 132.31206517 -219.83040951 120.98493531 -219.84423828 109.65771484 C-219.86033281 96.46863969 -219.86659141 83.27961924 -219.85740149 70.09053564 C-219.85644595 68.68120163 -219.85550284 67.2718676 -219.8545723 65.86253357 C-219.85410947 65.16931347 -219.85364664 64.47609337 -219.85316979 63.7618666 C-219.85059149 58.90263737 -219.85492571 54.04344316 -219.86201096 49.18421936 C-219.87135738 42.63086477 -219.86459862 36.07765636 -219.84732819 29.52430916 C-219.8433809 27.12747039 -219.84446702 24.7306169 -219.85111618 22.3337841 C-219.90534187 0.79139352 -218.29290188 -18.31328063 -202.78100586 -34.65869141 C-198.15549277 -39.26461482 -193.26468776 -42.77998907 -187.453125 -45.72265625 C-186.19048828 -46.37041016 -186.19048828 -46.37041016 -184.90234375 -47.03125 C-134.82169726 -67.97670128 -41.33119815 -26.34071164 0 0 Z M-180.19140625 -9.85546875 C-186.11265831 -2.59168937 -186.75039692 4.39158068 -186.71382141 13.46687317 C-186.71764696 14.47851947 -186.72147251 15.49016577 -186.72541398 16.53246802 C-186.73571408 19.91468357 -186.73175745 23.29672842 -186.7277832 26.67895508 C-186.73213135 29.10708269 -186.73731485 31.53520893 -186.74327087 33.96333313 C-186.75527141 39.86998013 -186.75781346 45.77658494 -186.75547061 51.6832395 C-186.75368533 56.48657711 -186.7554416 61.28990095 -186.75969505 66.09323692 C-186.76029024 66.77769085 -186.76088543 67.46214478 -186.76149866 68.16733974 C-186.76271045 69.55796769 -186.76392459 70.94859564 -186.76514103 72.33922359 C-186.77601085 85.37305147 -186.77385689 98.40685346 -186.76775619 111.44068279 C-186.76258915 123.35132305 -186.77383783 135.26188146 -186.79285441 147.17250554 C-186.81225083 159.41533752 -186.82048554 171.65813082 -186.81673115 183.90097827 C-186.81482164 190.76914996 -186.81728216 197.63725203 -186.83144569 204.50541115 C-186.84463412 210.9659021 -186.84207493 217.42627044 -186.82903481 223.88676262 C-186.8266705 226.25464051 -186.82939845 228.62252993 -186.83765793 230.99039459 C-186.84813926 234.22940652 -186.84001308 237.46787084 -186.8273468 240.7068634 C-186.83472109 241.63791533 -186.84209537 242.56896725 -186.84969312 243.52823287 C-186.76316773 254.08766141 -184.03350325 262.75461096 -176.453125 270.27734375 C-171.18193483 274.7315967 -165.94612706 276.57574336 -159.19140625 277.765625 C-158.49626923 277.88975266 -157.8011322 278.01388031 -157.08493042 278.14176941 C-150.59148714 279.28825565 -144.07995462 280.32944084 -137.56860352 281.3684082 C-92.64592427 288.55487588 -49.25731298 300.66046357 -9.4921875 323.24609375 C-7.53650388 324.42778099 -7.53650388 324.42778099 -5.453125 324.27734375 C-5.06379985 287.77551366 -4.76435521 251.27404829 -4.5850144 214.77056853 C-4.56375303 210.45861456 -4.54174949 206.14666467 -4.51928711 201.8347168 C-4.51482783 200.97630516 -4.51036855 200.11789352 -4.50577415 199.2334694 C-4.43185063 185.34369861 -4.29784374 171.45512698 -4.14152747 157.566067 C-3.98240762 143.3087223 -3.88809679 129.05200445 -3.85362059 114.79380828 C-3.83032092 105.99870716 -3.75682134 97.20699519 -3.61854506 88.41293792 C-3.52849988 82.37790416 -3.50156043 76.34461535 -3.52360158 70.30895903 C-3.53446922 66.82789214 -3.51814889 63.35273085 -3.42663193 59.87272263 C-2.53903043 46.32699893 -2.53903043 46.32699893 -7.1240418 34.10029054 C-11.10247944 30.50267276 -15.5085867 28.17492565 -20.43845093 26.13334143 C-23.13781669 24.98643094 -25.56759051 23.48798462 -28.046875 21.9296875 C-62.84634392 2.36127038 -101.72502243 -8.1117271 -140.890625 -14.66015625 C-142.74518311 -14.97762817 -142.74518311 -14.97762817 -144.63720703 -15.30151367 C-163.98052038 -18.63206919 -163.98052038 -18.63206919 -180.19140625 -9.85546875 Z " fill="#6a5f5f" transform="translate(245.453125,97.72265625)"/>
<path d="M0 0 C4.64033987 2.15444351 8.03598049 5.2220809 10 10 C10.54851096 14.13732054 10.46541986 18.23134214 10.390625 22.3984375 C10.38496521 23.58853424 10.37930542 24.77863098 10.37347412 26.00479126 C10.35113451 29.79527486 10.30093963 33.58480345 10.25 37.375 C10.22993201 39.94920507 10.21168177 42.523425 10.1953125 45.09765625 C10.15127745 51.39876178 10.08438805 57.69931265 10 64 C10.66319244 63.99111755 11.32638489 63.98223511 12.00967407 63.9730835 C18.92026134 63.88450044 25.83068696 63.82421985 32.74169922 63.78027344 C35.31989088 63.76017437 37.89803704 63.73289059 40.47607422 63.69824219 C44.18468461 63.64965153 47.89269156 63.62701342 51.6015625 63.609375 C52.75177887 63.58872986 53.90199524 63.56808472 55.08706665 63.54681396 C61.38852193 63.54505226 65.23604813 63.72116563 70 68 C73.62833663 71.81930172 74.31000458 74.88279006 74.5 80 C74.31000458 85.11720994 73.62833663 88.18069828 70 92 C64.37931362 97.04832683 58.89755008 96.5215801 51.6015625 96.390625 C50.41146576 96.38496521 49.22136902 96.37930542 47.99520874 96.37347412 C44.20472514 96.35113451 40.41519655 96.30093963 36.625 96.25 C34.05079493 96.22993201 31.476575 96.21168177 28.90234375 96.1953125 C22.60123822 96.15127745 16.30068735 96.08438805 10 96 C10.00888245 96.66319244 10.01776489 97.32638489 10.0269165 98.00967407 C10.11549956 104.92026134 10.17578015 111.83068696 10.21972656 118.74169922 C10.23982563 121.31989088 10.26710941 123.89803704 10.30175781 126.47607422 C10.35034847 130.18468461 10.37298658 133.89269156 10.390625 137.6015625 C10.41127014 138.75177887 10.43191528 139.90199524 10.45318604 141.08706665 C10.45494774 147.38852193 10.27883437 151.23604813 6 156 C2.18069828 159.62833663 -0.88279006 160.31000458 -6 160.5 C-11.11720994 160.31000458 -14.18069828 159.62833663 -18 156 C-23.04832683 150.37931362 -22.5215801 144.89755008 -22.390625 137.6015625 C-22.38496521 136.41146576 -22.37930542 135.22136902 -22.37347412 133.99520874 C-22.35113451 130.20472514 -22.30093963 126.41519655 -22.25 122.625 C-22.22993201 120.05079493 -22.21168177 117.476575 -22.1953125 114.90234375 C-22.15127745 108.60123822 -22.08438805 102.30068735 -22 96 C-22.99478867 96.01332367 -22.99478867 96.01332367 -24.00967407 96.0269165 C-30.92026134 96.11549956 -37.83068696 96.17578015 -44.74169922 96.21972656 C-47.31989088 96.23982563 -49.89803704 96.26710941 -52.47607422 96.30175781 C-56.18468461 96.35034847 -59.89269156 96.37298658 -63.6015625 96.390625 C-65.32688705 96.42159271 -65.32688705 96.42159271 -67.08706665 96.45318604 C-73.38852193 96.45494774 -77.23604813 96.27883437 -82 92 C-85.62833663 88.18069828 -86.31000458 85.11720994 -86.5 80 C-86.31000458 74.88279006 -85.62833663 71.81930172 -82 68 C-76.37931362 62.95167317 -70.89755008 63.4784199 -63.6015625 63.609375 C-62.41146576 63.61503479 -61.22136902 63.62069458 -59.99520874 63.62652588 C-56.20472514 63.64886549 -52.41519655 63.69906037 -48.625 63.75 C-46.05079493 63.77006799 -43.476575 63.78831823 -40.90234375 63.8046875 C-34.60123822 63.84872255 -28.30068735 63.91561195 -22 64 C-22.00888245 63.33680756 -22.01776489 62.67361511 -22.0269165 61.99032593 C-22.11549956 55.07973866 -22.17578015 48.16931304 -22.21972656 41.25830078 C-22.23982563 38.68010912 -22.26710941 36.10196296 -22.30175781 33.52392578 C-22.35034847 29.81531539 -22.37298658 26.10730844 -22.390625 22.3984375 C-22.41127014 21.24822113 -22.43191528 20.09800476 -22.45318604 18.91293335 C-22.45494774 12.61147807 -22.27883437 8.76395187 -18 4 C-12.72867143 -1.00776214 -6.89190982 -0.92775709 0 0 Z " fill="#6a5f5f" transform="translate(390,304)"/>
<path d="M0 0 C1.14585068 0.23567184 1.14585068 0.23567184 2.31484985 0.47610474 C16.15032629 3.32467515 29.75992499 6.73063416 43.25 10.9375 C44.87808594 11.44313477 44.87808594 11.44313477 46.5390625 11.95898438 C49.84465415 12.99629591 53.14251004 14.05452228 56.4375 15.125 C57.43612061 15.445896 58.43474121 15.76679199 59.46362305 16.09741211 C65.92111962 18.25548306 70.86733484 20.42943142 75.625 25.4375 C78.02303575 30.60250009 78.00381535 35.3377288 77.25 40.9375 C74.97209954 45.84374714 72.03254033 48.4542579 67.25 50.9375 C59.86870358 52.89544952 54.28058373 50.68890347 47.22888184 48.19613647 C43.79787376 46.98916705 40.34510246 45.84867555 36.890625 44.7109375 C36.17747131 44.47579941 35.46431763 44.24066132 34.72955322 43.99839783 C27.23275173 41.55682689 19.6498512 39.52509573 12 37.625 C11.34032227 37.45985901 10.68064453 37.29471802 10.00097656 37.12457275 C2.87948532 35.35532182 -4.24435476 33.7989333 -11.484375 32.578125 C-12.70995117 32.37098877 -13.93552734 32.16385254 -15.19824219 31.95043945 C-17.48618822 31.57975697 -19.77857296 31.23506272 -22.07519531 30.92260742 C-29.38197901 29.77454594 -33.84809271 27.55440403 -38.75 21.9375 C-41.10913751 18.00560416 -41.14072535 14.46991409 -40.75 9.9375 C-38.92698367 4.06333628 -36.58361931 1.43416077 -31.75 -2.0625 C-22.93440508 -6.47029746 -9.27362305 -1.95313269 0 0 Z " fill="#6a5f5f" transform="translate(130.75,163.0625)"/>
<path d="M0 0 C2.00066343 0.40235726 4.00397578 0.78822506 6.00830078 1.171875 C33.2795382 6.48464409 33.2795382 6.48464409 38.77001953 13.65625 C40.89285755 17.99422334 41.19784569 21.86459698 40.77001953 26.65625 C38.99312945 31.33227654 36.52322252 34.37219739 32.77001953 37.65625 C22.46956607 41.08973449 10.83512795 37.53266363 0.58251953 35.28125 C-0.92440677 34.95983299 -2.4315678 34.63951447 -3.93896484 34.3203125 C-6.79672103 33.71297965 -9.6523582 33.0970978 -12.50610352 32.47119141 C-14.72445775 31.9857219 -16.94421734 31.50650311 -19.16674805 31.04052734 C-24.71281076 29.86707295 -29.08382603 28.72505027 -32.48388672 23.86328125 C-34.95515001 19.41156305 -35.96452605 15.79806904 -35.22998047 10.65625 C-33.37278193 5.38260066 -31.021628 1.72781893 -26.22998047 -1.34375 C-17.73940049 -4.17394333 -8.52563054 -1.71876051 0 0 Z " fill="#6a5f5f" transform="translate(125.22998046875,247.34375)"/>
</svg>
