<?xml version="1.0" encoding="UTF-8"?>
<svg version="1.1" xmlns="http://www.w3.org/2000/svg" width="512" height="512">
<path d="M0 0 C3.56943833 2.58214687 4.7688666 4.20547895 6 8.4375 C6 14.6416249 2.87944425 18.46097417 -1.30786133 22.68112183 C-1.87682129 23.23929596 -2.44578125 23.79747009 -3.03198242 24.37255859 C-3.63714188 24.97815613 -4.24230133 25.58375366 -4.86579895 26.20770264 C-6.85532331 28.19514745 -8.85523982 30.17177146 -10.85546875 32.1484375 C-12.24189079 33.52926064 -13.62764922 34.91075036 -15.01277161 36.2928772 C-18.65086344 39.91954351 -22.2978757 43.53710798 -25.94683838 47.15283203 C-29.67247726 50.84772076 -33.38958271 54.55117238 -37.10742188 58.25390625 C-44.39663545 65.51099611 -51.69530443 72.75849623 -59 80 C-58.0204684 80.00021737 -57.0409368 80.00043474 -56.03172243 80.00065869 C1.98761349 80.01397434 60.00688996 80.05359772 118.02618144 80.12685562 C124.98831993 80.13563959 131.95045871 80.14417821 138.91259766 80.15258789 C139.60542011 80.15342894 140.29824257 80.15426999 141.01205964 80.15513652 C163.47496468 80.18229019 185.93784216 80.19323761 208.40076234 80.19579524 C232.13527441 80.19858557 255.86969835 80.21981161 279.60417783 80.26052457 C293.82575724 80.28432224 308.04718916 80.29330811 322.26878576 80.28351311 C332.0131722 80.27820873 341.75742615 80.29117263 351.50177486 80.3186629 C357.12880441 80.3339931 362.75553757 80.34111471 368.38257599 80.32659721 C373.53098009 80.31349189 378.67880849 80.32324877 383.82714741 80.35143773 C385.69264405 80.35757198 387.55819135 80.35520847 389.42366214 80.34362926 C391.95489026 80.32914313 394.48413856 80.34525971 397.01525307 80.36914349 C398.10823437 80.3518474 398.10823437 80.3518474 399.22329611 80.3342019 C404.86767176 80.43958756 407.1754266 82.14242717 411 86 C412.61429923 89.22859847 412.59570657 92.50993653 412 96 C410.26397895 99.02508145 408.16419863 101.41790069 405 103 C402.49345724 103.10155821 400.01443576 103.14213375 397.50744438 103.1386652 C396.32887476 103.14292853 396.32887476 103.14292853 395.12649566 103.14727798 C392.46573896 103.15567004 389.80502554 103.15689671 387.14425659 103.15821838 C385.22862205 103.16278067 383.31298851 103.16778019 381.39735615 103.17318195 C376.11154679 103.18681047 370.82574389 103.194195 365.53992152 103.20060861 C359.84800756 103.20859193 354.15610713 103.22229678 348.46420288 103.23532104 C338.59535011 103.25711324 328.72649599 103.27524766 318.85763168 103.29092598 C304.58875677 103.31359969 290.31989683 103.34174594 276.05103458 103.37124526 C252.90300743 103.41895188 229.75497442 103.46221625 206.60693359 103.50268555 C184.11539229 103.54201765 161.62385641 103.58343585 139.13232422 103.62768555 C138.09285588 103.62972934 138.09285588 103.62972934 137.03238819 103.63181442 C130.07336978 103.6454995 123.11435147 103.65922707 116.15533321 103.67298577 C57.77023367 103.78841516 -0.61487782 103.89667083 -59 104 C-58.21295181 104.78482758 -57.42590363 105.56965515 -56.61500549 106.37826538 C-49.21048869 113.76254047 -41.808591 121.14943187 -34.40927219 128.53891563 C-30.60481777 132.33814386 -26.79943556 136.13643316 -22.99194336 139.93261719 C-19.31989678 143.59382559 -15.65027407 147.25744711 -11.98234367 150.92277908 C-10.58013517 152.32313502 -9.17704456 153.72260823 -7.7730732 155.12119675 C-5.81197295 157.07507427 -3.85398767 159.03202192 -1.89672852 160.98974609 C-1.31122726 161.57165207 -0.72572601 162.15355804 -0.1224823 162.75309753 C3.43659326 166.32137882 5.15239736 168.21575565 5.375 173.25 C5.32105895 176.59434537 4.97510877 178.76931271 3 181.5 C-0.21770205 184.18141838 -1.91141771 184.82248147 -5.9375 185.28515625 C-12.35146709 184.39837671 -16.94545361 178.32914187 -21.26269531 173.98022461 C-22.08111908 173.16369919 -22.89954285 172.34717377 -23.74276733 171.50590515 C-26.44279527 168.80957774 -29.13556284 166.10612495 -31.828125 163.40234375 C-33.70152034 161.52775631 -35.5752571 159.65351594 -37.44940186 157.77967834 C-41.37333297 153.85481209 -45.29337921 149.92609973 -49.2109375 145.99487305 C-53.74230595 141.44775332 -58.27890595 136.90590752 -62.81852269 132.36702341 C-67.18696426 127.99919166 -71.55248896 123.6284591 -75.91652679 119.25622749 C-77.77395105 117.39561341 -79.63198836 115.53561112 -81.49063873 113.67622185 C-84.08125123 111.08345079 -86.66854949 108.48741955 -89.25488281 105.89038086 C-90.02889435 105.11682251 -90.80290588 104.34326416 -91.60037231 103.54626465 C-92.30131012 102.84106186 -93.00224792 102.13585907 -93.72442627 101.4092865 C-94.64246977 100.48872923 -94.64246977 100.48872923 -95.5790596 99.54957485 C-98.180071 96.7130999 -98.52234049 94.01683727 -98.47034836 90.19585514 C-97.88450432 87.46080011 -96.8660869 86.28721158 -94.97442627 84.24131775 C-94.33582924 83.54632109 -93.69723221 82.85132442 -93.03928375 82.13526726 C-89.70015615 78.63897606 -86.32891867 75.18149707 -82.90917969 71.76391602 C-81.74444626 70.59414467 -81.74444626 70.59414467 -80.55618286 69.40074158 C-78.01403367 66.84916806 -75.4682007 64.30131141 -72.921875 61.75390625 C-71.14537354 59.9741891 -69.36894646 58.19439772 -67.59259033 56.41453552 C-63.88251215 52.6984895 -60.17041284 48.98447295 -56.45703125 45.27172852 C-52.16536253 40.98066326 -47.87933443 36.68401969 -43.59584117 32.38479477 C-39.46380783 28.23812914 -35.32627719 24.09698564 -31.18662262 19.95792961 C-29.42908524 18.19920995 -27.67317431 16.43886342 -25.91890717 14.67688179 C-23.47505077 12.22327625 -21.02499865 9.77603012 -18.57324219 7.33032227 C-17.84696625 6.59842682 -17.12069031 5.86653137 -16.37240601 5.11245728 C-15.37169571 4.11803871 -15.37169571 4.11803871 -14.35076904 3.10353088 C-13.77267864 2.52489572 -13.19458824 1.94626055 -12.59897995 1.35009098 C-8.8400222 -1.8237668 -4.46510596 -1.25336308 0 0 Z " fill="#000000" transform="translate(99,164)"/>
</svg>
