<?xml version="1.0" encoding="UTF-8"?>
<svg version="1.1" xmlns="http://www.w3.org/2000/svg" width="512" height="512">
<path d="M0 0 C4.8846525 2.26787438 7.73212562 5.1153475 10 10 C10.73443953 15.45583649 11.07179704 20.09125188 8.32421875 24.984375 C5.80671343 28.25078526 3.14868583 31.26148706 0.3125 34.25 C-0.76484021 35.40055751 -1.84165911 36.55160336 -2.91796875 37.703125 C-3.44438965 38.26451172 -3.97081055 38.82589844 -4.51318359 39.40429688 C-6.53778953 41.57717444 -8.52087492 43.78569552 -10.5 46 C-13.96489833 49.86662567 -17.47304568 53.69013786 -21 57.5 C-25.27977624 62.12350101 -29.51758655 66.78092388 -33.72265625 71.47265625 C-36.29809775 74.33082203 -38.89685764 77.16710261 -41.5 80 C-44.85293117 83.64927171 -48.18998357 87.31169598 -51.5 91 C-55.27537217 95.20684327 -59.08980448 99.37674853 -62.9140625 103.5390625 C-65.79422607 106.67667086 -68.65531614 109.83020941 -71.5 113 C-75.27537217 117.20684327 -79.08980448 121.37674853 -82.9140625 125.5390625 C-85.79422607 128.67667086 -88.65531614 131.83020941 -91.5 135 C-95.27537217 139.20684327 -99.08980448 143.37674853 -102.9140625 147.5390625 C-105.79422607 150.67667086 -108.65531614 153.83020941 -111.5 157 C-114.97783155 160.87475797 -118.48158104 164.72463963 -122 168.5625 C-122.72219727 169.35043945 -122.72219727 169.35043945 -123.45898438 170.15429688 C-126.86460433 173.86460433 -126.86460433 173.86460433 -128 175 C-127.18974597 175.00059709 -126.37949195 175.00119418 -125.54468477 175.00180936 C-77.54588292 175.03768615 -29.54714384 175.09429867 18.45159981 175.17792095 C24.21203634 175.18793867 29.97247315 175.19778276 35.73291016 175.20751953 C36.87973237 175.2094609 38.02655458 175.21140228 39.20812897 175.21340248 C57.78886972 175.24444219 76.3695981 175.26140863 94.9503599 175.27319422 C114.00921334 175.28559557 133.06800181 175.31307397 152.12681425 175.35461307 C163.8916198 175.37977757 175.65631764 175.39311513 187.42115049 175.39142957 C195.48354842 175.39139987 203.54583645 175.40598592 211.60819156 175.43216428 C216.26306606 175.44684389 220.91771518 175.45498444 225.57260895 175.44580269 C229.83277014 175.43754152 234.09247766 175.44759928 238.35257141 175.47233662 C239.89505363 175.4780403 241.43757858 175.47697388 242.98004813 175.46851245 C245.07545837 175.45800117 247.16933528 175.47203393 249.26464272 175.49219131 C250.42886525 175.4937102 251.59308778 175.49522908 252.79258978 175.49679399 C257.8371614 176.28822963 260.92225267 178.86552912 264.375 182.5 C266.77303575 187.66500009 266.75381535 192.4002288 266 198 C263.68875714 202.97806154 260.71039358 205.30046553 256 208 C252.79258978 208.50320601 252.79258978 208.50320601 249.26464272 208.50780869 C248.60938415 208.51411244 247.95412559 208.52041619 247.27901071 208.52691096 C245.0857629 208.54315973 242.8936093 208.53101338 240.7003479 208.51898193 C239.11123903 208.52485803 237.52213583 208.53248552 235.93304288 208.541713 C231.56829496 208.56199015 227.20387175 208.55741497 222.83909822 208.54880548 C218.13155584 208.54386549 213.42409553 208.5619395 208.71658325 208.57722473 C200.5611649 208.60055246 192.4058355 208.60928458 184.25038528 208.60811615 C172.45898065 208.60644787 160.66769471 208.6267719 148.87632172 208.65247145 C129.74584136 208.69356915 110.61538232 208.71686961 91.48486328 208.72900391 C72.90085805 208.74082961 54.31689298 208.76102098 35.73291016 208.79248047 C34.5874802 208.79441657 33.44205023 208.79635267 32.26191027 208.79834744 C26.51565048 208.80811192 20.76939098 208.81804105 15.02313161 208.82805204 C-32.65122589 208.91089613 -80.32558511 208.96486801 -128 209 C-127.38874268 209.60618164 -126.77748535 210.21236328 -126.14770508 210.83691406 C-125.34228271 211.63838867 -124.53686035 212.43986328 -123.70703125 213.265625 C-122.91014893 214.05743164 -122.1132666 214.84923828 -121.29223633 215.66503906 C-118.74384444 218.26093 -116.36534682 220.96100508 -113.99609375 223.71875 C-111.4653834 226.6109904 -108.86147349 229.43074873 -106.25 232.25 C-105.47825439 233.08349976 -105.47825439 233.08349976 -104.69091797 233.93383789 C-103.64284619 235.06552722 -102.59466879 236.19711874 -101.54638672 237.32861328 C-95.0812425 244.31635836 -88.6708818 251.35244599 -82.3125 258.4375 C-79.72384997 261.30600409 -77.11414854 264.1547665 -74.5 267 C-70.40833893 271.45335487 -66.35177054 275.93659854 -62.3125 280.4375 C-59.72384997 283.30600409 -57.11414854 286.1547665 -54.5 289 C-50.40833893 293.45335487 -46.35177054 297.93659854 -42.3125 302.4375 C-39.72384997 305.30600409 -37.11414854 308.1547665 -34.5 311 C-30.40833893 315.45335487 -26.35177054 319.93659854 -22.3125 324.4375 C-19.72384781 327.30600649 -17.11388476 330.15452234 -14.5 333 C-12.66604756 334.99943377 -10.83297337 336.99966819 -9 339 C-8.21367187 339.85722656 -7.42734375 340.71445312 -6.6171875 341.59765625 C10.39273865 360.2967214 10.39273865 360.2967214 10.27734375 371.015625 C9.77970509 376.37049732 7.24904972 378.81340277 3.5 382.375 C-1.55778486 384.72325726 -6.51685793 384.97097307 -12 384 C-17.66114857 381.01963956 -21.66086904 376.40290975 -25.9375 371.75 C-26.61490234 371.02425781 -27.29230469 370.29851562 -27.99023438 369.55078125 C-31.85793945 365.39012441 -35.63157985 361.15777075 -39.35864258 356.87109375 C-41.81237659 354.07391727 -44.33965232 351.3480564 -46.875 348.625 C-51.1986416 343.96166777 -55.47818453 339.26303824 -59.72265625 334.52734375 C-62.29809775 331.66917797 -64.89685764 328.83289739 -67.5 326 C-71.59169207 321.54667383 -75.64822977 317.06340112 -79.6875 312.5625 C-82.27615003 309.69399591 -84.88585146 306.8452335 -87.5 304 C-91.59166107 299.54664513 -95.64822946 295.06340146 -99.6875 290.5625 C-102.27615003 287.69399591 -104.88585146 284.8452335 -107.5 282 C-111.59166107 277.54664513 -115.64822946 273.06340146 -119.6875 268.5625 C-122.27615003 265.69399591 -124.88585146 262.8452335 -127.5 260 C-131.59166107 255.54664513 -135.64822946 251.06340146 -139.6875 246.5625 C-142.27615003 243.69399591 -144.88585146 240.8452335 -147.5 238 C-151.591082 233.54727539 -155.64888119 229.06636518 -159.68359375 224.5625 C-161.35185115 222.71700783 -163.02927108 220.88459431 -164.72265625 219.0625 C-182.12179358 200.31989257 -182.12179358 200.31989257 -182.3125 192.25 C-182.34988281 191.22390625 -182.38726562 190.1978125 -182.42578125 189.140625 C-181.55385789 182.70919033 -176.61833787 178.28713468 -172.3125 173.75 C-171.23646758 172.60073919 -170.16095088 171.45099532 -169.0859375 170.30078125 C-168.55967773 169.73955566 -168.03341797 169.17833008 -167.49121094 168.60009766 C-165.44493774 166.40440766 -163.43908482 164.17392781 -161.4375 161.9375 C-158.1494628 158.26893046 -154.83326234 154.62745822 -151.5 151 C-148.14706883 147.35072829 -144.81001643 143.68830402 -141.5 140 C-137.72462783 135.79315673 -133.91019552 131.62325147 -130.0859375 127.4609375 C-127.20577393 124.32332914 -124.34468386 121.16979059 -121.5 118 C-117.72462783 113.79315673 -113.91019552 109.62325147 -110.0859375 105.4609375 C-107.20577393 102.32332914 -104.34468386 99.16979059 -101.5 96 C-97.72462783 91.79315673 -93.91019552 87.62325147 -90.0859375 83.4609375 C-87.20577393 80.32332914 -84.34468386 77.16979059 -81.5 74 C-77.72462783 69.79315673 -73.91019552 65.62325147 -70.0859375 61.4609375 C-67.20577393 58.32332914 -64.34468386 55.16979059 -61.5 52 C-57.72462783 47.79315673 -53.91019552 43.62325147 -50.0859375 39.4609375 C-47.20577393 36.32332914 -44.34468386 33.16979059 -41.5 30 C-37.72988668 25.79901659 -33.92545953 21.63046962 -30.09912109 17.48071289 C-26.34750885 13.40513976 -22.69127381 9.25092348 -19.0703125 5.05859375 C-13.32239274 -0.65679062 -7.79047632 -0.94077665 0 0 Z " fill="#000000" transform="translate(214,64)"/>
</svg>
