<?xml version="1.0" encoding="UTF-8"?>
<svg version="1.1" xmlns="http://www.w3.org/2000/svg" width="512" height="512">
<path d="M0 0 C2.8257197 1.69543182 3.68556639 2.91189421 4.59375 6.0546875 C5.31314788 10.16355618 5.54159784 12.09975357 3.31424332 15.80207253 C0.99040635 19.01325695 -1.53116585 21.8053221 -4.34039307 24.5809021 C-5.12956167 25.37263398 -5.12956167 25.37263398 -5.93467307 26.18036044 C-7.68644057 27.93540379 -9.44522545 29.68323544 -11.20410156 31.43115234 C-12.46618902 32.69267527 -13.72783549 33.95463952 -14.98907471 35.2170105 C-18.40575303 38.63426172 -21.82855469 42.04531915 -25.25249958 45.45528746 C-28.83286469 49.02313479 -32.4075522 52.59666139 -35.98284912 56.16958618 C-42.75024597 62.93077136 -49.52272411 69.68684286 -56.29704833 76.44108641 C-64.01073912 84.13240853 -71.71873946 91.82942266 -79.42627001 99.52691722 C-95.27786191 115.35761419 -111.13657695 131.18115928 -127 147 C-125.42506133 150.8511341 -122.8269137 153.44281126 -119.91357422 156.31347656 C-119.3905818 156.8367667 -118.86758938 157.36005684 -118.3287487 157.89920425 C-116.57543297 159.65113124 -114.81507483 161.39580606 -113.0546875 163.140625 C-111.79612627 164.39534789 -110.53801964 165.65052691 -109.28033447 166.90612793 C-106.57126661 169.6088727 -103.85912207 172.30847843 -101.14459229 175.0057373 C-96.8537901 179.26951617 -92.5706074 183.54089371 -88.28857422 187.81347656 C-79.19827262 196.88156856 -70.09956545 205.94120546 -61 215 C-51.17682088 224.77916603 -41.35507432 234.55974422 -31.54305458 244.3501091 C-27.2846751 248.59851265 -23.021463 252.84198871 -18.7545166 257.08178711 C-16.10288782 259.7185147 -13.45539334 262.35936346 -10.80901337 265.00135803 C-9.57962361 266.22699841 -8.34850354 267.45090595 -7.11554718 268.67295837 C-5.43453446 270.33956907 -3.75977404 272.01222261 -2.08642578 273.68652344 C-1.59557432 274.17018497 -1.10472286 274.65384651 -0.59899712 275.15216446 C2.45151005 278.22136198 4.88289443 280.78280116 5.1171875 285.21875 C4.7389588 288.78142033 4.36173324 291.39711127 2.5 294.5 C-1.1168976 296.67013856 -4.7922677 297.39026185 -9 297 C-13.29210132 294.80941567 -16.5048477 291.77767706 -19.86479187 288.38917542 C-20.43526664 287.82182063 -21.00574141 287.25446584 -21.5935033 286.66991848 C-23.49899957 284.77238342 -25.39728622 282.86779914 -27.2956543 280.96313477 C-28.66217327 279.59932645 -30.02911722 278.23594385 -31.39645386 276.87295532 C-35.10541308 273.17311255 -38.8080195 269.46697267 -42.5092504 265.75940061 C-46.38239077 261.88119747 -50.26040759 258.00787555 -54.13764954 254.1337738 C-60.64688377 247.62817796 -67.15188997 241.11837677 -73.65454102 234.60620117 C-81.17562293 227.07423041 -88.70388896 219.54949793 -96.2359187 212.0284763 C-102.70082786 205.57263815 -109.16183745 199.11291674 -115.61959392 192.64992374 C-119.47737254 188.78902499 -123.33649468 184.92949523 -127.19913292 181.07345772 C-130.82910172 177.44925918 -134.45415644 173.82021653 -138.0754509 170.18735123 C-139.40645442 168.85369961 -140.73916948 167.52175366 -142.07369804 166.19162941 C-143.89251042 164.37826779 -145.70507274 162.55888148 -147.51615906 160.73780823 C-148.31356735 159.9470921 -148.31356735 159.9470921 -149.12708491 159.1404019 C-152.60811957 155.62194059 -154.73158756 153.05782867 -155.375 148.125 C-154.60785306 141.73210884 -149.66511089 137.37387984 -145.26219177 133.00822449 C-144.69327699 132.43618973 -144.12436221 131.86415496 -143.53820759 131.27478582 C-141.64143455 129.37007142 -139.73763656 127.47254332 -137.83374023 125.57495117 C-136.46816231 124.20666177 -135.10300993 122.83794757 -133.73825073 121.46884155 C-130.03852855 117.76001443 -126.33252342 114.05752604 -122.6250751 110.35642409 C-118.74640796 106.48282363 -114.87262638 102.60434234 -110.99806213 98.72663879 C-104.49424547 92.21918575 -97.98622767 85.71595656 -91.47583008 79.21508789 C-83.94324614 71.69340157 -76.4179128 64.16451876 -68.8962788 56.6318838 C-62.43958429 50.16612344 -55.97901309 43.70425609 -49.51516491 37.24564725 C-45.65375316 33.3873573 -41.79371446 29.52771978 -37.9371624 25.66457176 C-34.31459166 22.03623795 -30.6871907 18.41280446 -27.05595016 14.79314804 C-25.72187593 13.46172536 -24.38951377 12.12858474 -23.05896568 10.79363823 C-21.24749021 8.97672585 -19.43001323 7.16604191 -17.61082458 5.3568573 C-17.08144978 4.82302105 -16.55207497 4.28918479 -16.00665849 3.73917168 C-10.84350202 -1.36876948 -6.84298478 -1.54678679 0 0 Z " fill="#000000" transform="translate(331,108)"/>
</svg>
