<svg width="127" height="110" viewBox="0 0 127 110" fill="none" xmlns="http://www.w3.org/2000/svg">
<path d="M124.914 79.6478L117.198 76.9906V64.4899L123.401 61.9422C124.128 61.6447 124.468 60.832 124.162 60.1271C123.971 59.6889 123.562 59.3762 123.079 59.2988L112.894 57.6654V45.4142L124.973 40.676C125.704 40.3895 126.057 39.5821 125.762 38.8726C125.608 38.5044 125.3 38.2177 124.914 38.0853L117.198 35.4281V22.9275L123.401 20.3797C124.127 20.0815 124.467 19.2687 124.16 18.5639C124.006 18.2118 123.71 17.9368 123.34 17.8042L75.4472 0.637488C75.1388 0.526835 74.8006 0.522915 74.4896 0.626405L9.84275 22.5132C9.70785 22.5578 9.5808 22.6224 9.466 22.7044C9.28191 22.8429 4.94786 26.0433 4.94786 35.8756C4.9304 38.1151 5.19496 40.3484 5.73561 42.5256C4.05308 43.911 0.666607 47.6516 0.666607 55.2714C0.637438 60.755 2.44615 66.099 5.81981 70.4971C5.21194 72.7627 4.91869 75.097 4.94786 77.438C4.94786 87.1886 9.36325 91.1537 9.55163 91.3158C9.677 91.4266 9.82206 91.5143 9.97975 91.5748L55.6464 109.02C55.813 109.083 55.9901 109.116 56.1687 109.116C56.3523 109.116 56.5339 109.082 56.7039 109.014L124.973 82.2385C125.704 81.952 126.057 81.1446 125.762 80.4351C125.608 80.0669 125.3 79.7802 124.914 79.6478ZM110.04 57.8967L56.1102 78.7584L10.9345 61.4933V50.3947L55.6521 67.4575C55.9916 67.589 56.3701 67.589 56.7096 67.4575L110.037 46.5377L110.04 57.8967ZM56.1702 106.238L11.3169 89.106C10.6205 88.3524 7.80488 84.8459 7.80488 77.438C7.76388 75.1248 8.08777 72.8191 8.7653 70.601C8.91974 70.13 8.80391 69.6146 8.46134 69.2489C5.21962 65.2716 3.47722 60.3373 3.52363 55.2658C3.52363 47.0295 7.90906 44.3626 8.09029 44.2587C8.66136 43.9376 8.93105 43.2781 8.74247 42.6641C8.09669 40.4566 7.78234 38.1702 7.80916 35.8756C7.80916 28.5093 10.4507 25.6041 11.0472 25.0416L74.9377 3.40832L118.935 19.1799C118.955 19.1799 118.955 19.1993 118.935 19.2062L56.1702 43.8943L14.311 27.8983C13.5774 27.6183 12.749 27.9684 12.4606 28.6805C12.3951 28.8422 12.3616 29.0144 12.3616 29.1882V43.0423C12.3617 43.611 12.7199 44.122 13.2649 44.3308L55.6521 60.5304C55.9916 60.6619 56.3701 60.6619 56.7096 60.5304L115.113 37.6156L120.379 39.4624C120.397 39.4693 120.397 39.4804 120.379 39.4887L56.1702 64.6756L10.0297 47.0725C9.29624 46.7925 8.46779 47.1427 8.17933 47.8547C8.11383 48.0164 8.08023 48.1886 8.08031 48.3623V62.4381C8.08043 63.0069 8.43864 63.5178 8.98365 63.7266L55.5908 81.5375C55.9281 81.6672 56.3037 81.6672 56.6411 81.5375L111.625 60.2714L117.702 61.2411C117.729 61.2411 117.73 61.2578 117.702 61.2675L56.1702 85.4568L14.311 69.4608C13.5774 69.1808 12.749 69.5311 12.4606 70.243C12.3951 70.4047 12.3616 70.5769 12.3616 70.7506V84.6048C12.3617 85.1735 12.7199 85.6845 13.2649 85.8932L55.6521 102.093C55.9916 102.224 56.3701 102.224 56.7096 102.093L115.113 79.1781L120.379 81.0249C120.397 81.0249 120.397 81.0429 120.379 81.0512L56.1702 106.238ZM114.344 34.9293L56.1702 57.7485L15.2129 42.0933V31.2178L55.6521 46.6763C55.9916 46.8077 56.3701 46.8077 56.7096 46.6763L114.344 24.0635V34.9293ZM114.344 76.4918L56.1702 99.311L15.2129 83.6558V72.7803L55.6521 88.2388C55.9916 88.3702 56.3701 88.3702 56.7096 88.2388L114.344 65.626V76.4918Z" fill="#00A79D" stroke="#00A79D"/>
</svg>
