<?xml version="1.0" standalone="no"?>
<!DOCTYPE svg PUBLIC "-//W3C//DTD SVG 20010904//EN"
 "http://www.w3.org/TR/2001/REC-SVG-20010904/DTD/svg10.dtd">
<svg version="1.0" xmlns="http://www.w3.org/2000/svg"
 width="512.000000pt" height="512.000000pt" viewBox="0 0 512.000000 512.000000"
 preserveAspectRatio="xMidYMid meet">

<g transform="translate(0.000000,512.000000) scale(0.100000,-0.100000)"
fill="#6a5f5f" stroke="none">
<path d="M3306 5099 l-26 -20 0 -280 0 -279 -233 0 c-293 0 -343 -12 -449
-108 l-38 -34 -52 46 c-29 26 -78 56 -108 69 l-55 22 -998 3 -998 2 -24 -24
c-24 -24 -25 -30 -25 -156 0 -97 -3 -130 -12 -130 -7 0 -37 -11 -66 -25 -76
-35 -154 -113 -188 -188 l-29 -62 0 -1750 0 -1750 28 -60 c37 -79 114 -156
191 -192 l61 -28 819 -3 818 -3 53 -44 c28 -25 78 -57 111 -72 l59 -28 415 0
415 0 65 31 c36 17 86 50 111 72 l46 41 819 3 819 3 65 31 c82 39 144 101 184
184 l31 65 0 1750 0 1750 -28 60 c-36 78 -107 150 -182 186 -33 16 -66 29 -72
29 -10 0 -13 33 -13 130 0 126 -1 132 -25 155 l-24 25 -373 0 -373 0 -18 80
c-57 251 -263 451 -519 504 -105 22 -150 21 -182 -5z m229 -164 c82 -30 135
-67 203 -139 64 -67 117 -176 132 -266 14 -88 14 -2370 0 -2370 -5 0 -10 4
-10 10 0 20 -138 123 -215 160 -44 22 -110 45 -147 52 l-68 13 0 1282 c0 1271
0 1283 20 1283 11 0 49 -11 85 -25z m-1174 -593 c34 -17 65 -44 84 -71 l30
-43 3 -1550 2 -1550 -32 20 c-87 53 -65 52 -1120 52 l-979 0 -24 -25 -25 -24
0 -326 0 -326 25 -24 24 -25 2211 0 2211 0 24 25 25 24 0 1776 c0 1994 -8
1814 78 1728 29 -29 52 -64 60 -89 18 -60 18 -3398 0 -3458 -16 -54 -90 -128
-144 -144 -31 -9 -244 -12 -862 -12 l-820 0 -71 -64 c-43 -40 -84 -69 -108
-75 -51 -15 -735 -15 -786 0 -24 6 -65 35 -108 75 l-71 64 -821 0 c-549 0
-835 4 -860 11 -53 14 -132 93 -146 144 -17 61 -15 3403 1 3459 13 44 96 136
123 136 13 0 15 -136 15 -1325 l0 -1326 25 -24 c31 -32 69 -32 100 0 l25 24 0
1486 0 1485 929 0 929 0 53 -28z m919 -1011 l0 -1040 26 -20 c16 -12 42 -21
63 -21 53 0 155 -27 218 -56 30 -15 87 -56 125 -92 85 -80 141 -186 159 -301
40 -263 -138 -523 -402 -586 -49 -11 -132 -15 -360 -15 -312 0 -359 -5 -437
-51 l-32 -18 2 1548 3 1549 30 43 c19 27 50 54 84 71 l53 28 234 0 234 0 0
-1039z m1390 -546 l0 -1585 -444 0 -445 0 51 53 c64 64 121 151 149 226 49
129 48 117 49 1549 l0 1342 320 0 320 0 0 -1585z m-2309 -1763 c64 -33 108
-91 116 -152 l6 -44 -34 21 c-88 54 -68 53 -1071 53 l-928 0 0 75 0 75 929 0
929 0 53 -28z m2309 -47 l0 -75 -928 0 c-999 0 -981 1 -1071 -51 l-34 -20 6
42 c8 60 52 118 116 151 l53 28 929 0 929 0 0 -75z m-2298 -258 c42 -24 98
-87 98 -109 0 -5 -454 -8 -1010 -8 l-1010 0 0 75 0 75 938 -2 937 -3 47 -28z
m2298 -42 l0 -75 -1010 0 c-555 0 -1010 3 -1010 6 0 17 45 76 72 95 68 49 45
48 1026 49 l922 0 0 -75z"/>
</g>
</svg>
