<?xml version="1.0" encoding="UTF-8"?>
<svg version="1.1" xmlns="http://www.w3.org/2000/svg" width="512" height="512">
<path d="M0 0 C1.23208443 0.84022202 1.23208443 0.84022202 2.48905945 1.69741821 C4.26202162 2.90789709 6.03177043 4.12309344 7.79858398 5.3425293 C12.60090368 8.65629463 17.42737487 11.93464104 22.25 15.21875 C23.74395798 16.23826752 23.74395798 16.23826752 25.26809692 17.27838135 C35.52122756 24.26600512 45.88506319 31.08063141 56.26171875 37.8828125 C71.72680459 48.03318526 87.10016238 58.30987613 102.41781616 68.68121338 C115.45539046 77.50569316 128.55568164 86.22856631 141.71160889 94.87561035 C144.53378582 96.73122734 147.35435099 98.58926642 150.17431641 100.44824219 C151.0701947 101.03875366 151.966073 101.62926514 152.88909912 102.2376709 C154.63444576 103.38810345 156.37976704 104.53857448 158.12506104 105.68908691 C162.41200364 108.51307772 166.70566047 111.32590212 171.01268005 114.11917114 C173.5624029 115.77768202 176.0985769 117.45665186 178.63671875 119.1328125 C179.88255737 119.92631104 179.88255737 119.92631104 181.15356445 120.73583984 C187.26345391 124.81438771 190.98850618 129.83638735 194.26171875 136.3828125 C195.49481284 152.91840215 195.49481284 152.91840215 190.26171875 159.3828125 C186.24662692 163.7159314 181.95657147 166.64539981 176.26171875 168.3828125 C172.96171875 168.3828125 169.66171875 168.3828125 166.26171875 168.3828125 C166.26171875 235.7028125 166.26171875 303.0228125 166.26171875 372.3828125 C168.57171875 372.3828125 170.88171875 372.3828125 173.26171875 372.3828125 C175.36530256 373.92544063 176.10226034 375.06389567 177.26171875 377.3828125 C177.38470588 379.87777413 177.45006315 382.34376067 177.46484375 384.83984375 C177.47054382 385.57982101 177.4762439 386.31979828 177.4821167 387.0821991 C177.49156893 388.64991831 177.49810157 390.21765741 177.50195312 391.78540039 C177.51163907 394.17564957 177.5426507 396.56503155 177.57421875 398.95507812 C177.58075098 400.47916157 177.58600059 402.00325115 177.58984375 403.52734375 C177.60219055 404.23897171 177.61453735 404.95059967 177.6272583 405.68379211 C177.60577084 410.50862741 176.73155427 413.91297698 173.26171875 417.3828125 C171.1962033 417.48525071 169.12711969 417.51574977 167.05906963 417.51982689 C166.40064844 417.52247872 165.74222724 417.52513054 165.06385389 417.52786273 C162.83004609 417.53559811 160.59629287 417.53611651 158.36247253 417.53671265 C156.75578702 417.54072448 155.14910252 417.54516223 153.54241925 417.5499922 C149.105788 417.56199464 144.66916764 417.56761462 140.23252332 417.57217336 C135.45599802 417.57811556 130.67948584 417.5897288 125.90296936 417.60046387 C114.35710979 417.62501912 102.81124586 417.63961932 91.26536819 417.65252393 C88.00667915 417.6562335 84.74799053 417.66020692 81.48930192 417.6642766 C61.27213193 417.68951003 41.05496131 417.71157263 20.83777905 417.72400475 C16.15186244 417.72693465 11.46594585 417.72989629 6.7800293 417.73291016 C5.03294177 417.73402923 5.03294177 417.73402923 3.25055955 417.73517092 C-15.62897787 417.74783201 -34.50842126 417.78106335 -53.38791469 417.82271199 C-72.75185881 417.86508071 -92.11575473 417.8886939 -111.47974509 417.89392531 C-122.359733 417.89734512 -133.23957396 417.90916726 -144.11951637 417.94202805 C-153.38305948 417.96996022 -162.64642556 417.98105804 -171.91000751 417.96983258 C-176.63964881 417.9646284 -181.36891899 417.96764616 -186.09850693 417.99229813 C-190.42455836 418.01465932 -194.74996928 418.01415409 -199.07603093 417.99509425 C-200.64471119 417.99227567 -202.21343367 417.99799502 -203.78204558 418.01290719 C-205.90818957 418.03189083 -208.03202054 418.02031267 -210.15810871 418.00084496 C-211.34077519 418.00220148 -212.52344166 418.00355801 -213.74194652 418.00495565 C-216.73828125 417.3828125 -216.73828125 417.3828125 -219.11917704 415.07650054 C-221.25950504 411.51565752 -221.27891321 408.41174213 -221.19921875 404.37890625 C-221.19784409 403.23845604 -221.19784409 403.23845604 -221.19644165 402.07496643 C-221.19042035 400.47382329 -221.17471847 398.87269065 -221.14990234 397.27172852 C-221.11334544 394.8246094 -221.10888361 392.37900464 -221.109375 389.93164062 C-221.09954448 388.37238279 -221.08788776 386.81313516 -221.07421875 385.25390625 C-221.0719931 384.52465439 -221.06976746 383.79540253 -221.06747437 383.04405212 C-220.99900677 379.3722272 -220.88958466 376.44325806 -218.73828125 373.3828125 C-216.73828125 372.3828125 -216.73828125 372.3828125 -209.73828125 372.3828125 C-209.73828125 305.0628125 -209.73828125 237.7428125 -209.73828125 168.3828125 C-213.03828125 168.3828125 -216.33828125 168.3828125 -219.73828125 168.3828125 C-226.52378836 166.43512064 -231.98688341 162.36477122 -235.73828125 156.3828125 C-239.12767869 149.54517392 -239.04906273 140.77212665 -236.88671875 133.53125 C-234.20704572 128.35274077 -230.47943475 125.24038537 -225.7578125 121.921875 C-225.15249191 121.49626785 -224.54717133 121.07066071 -223.92350769 120.63215637 C-216.17131635 115.22493717 -208.24930894 110.06779837 -200.33984375 104.89501953 C-184.22060638 94.34922295 -168.1872681 83.68414258 -152.23828125 72.8828125 C-136.90536811 62.50140638 -121.49020828 52.25471182 -106.01126099 42.09246826 C-89.83709343 31.47035062 -73.77212122 20.69259108 -57.75585938 9.83398438 C-21.29768444 -14.87140036 -21.29768444 -14.87140036 0 0 Z M-30.81640625 12.55078125 C-31.85876434 13.22091499 -31.85876434 13.22091499 -32.92218018 13.90458679 C-35.20504276 15.38148918 -37.47344932 16.87841902 -39.73828125 18.3828125 C-40.87656372 19.13887787 -40.87656372 19.13887787 -42.0378418 19.91021729 C-46.97761064 23.20395882 -51.89326231 26.53264141 -56.80322266 29.87060547 C-72.69684823 40.67156542 -88.67383843 51.33785269 -104.73828125 61.8828125 C-120.19673147 72.03254066 -135.56958432 82.29945559 -150.87927246 92.67214966 C-161.1998831 99.66302603 -171.55128537 106.60140548 -181.97265625 113.44140625 C-182.98247559 114.10447784 -183.99229492 114.76754944 -185.03271484 115.45071411 C-189.90545939 118.64808438 -194.78266404 121.83838624 -199.66601562 125.01953125 C-201.42454529 126.17047189 -203.18301215 127.32150851 -204.94140625 128.47265625 C-205.73109802 128.98388535 -206.52078979 129.49511444 -207.33441162 130.02183533 C-214.50440955 134.63362045 -214.50440955 134.63362045 -220.73828125 140.3828125 C-221.73886485 143.96981292 -221.73886485 143.96981292 -220.73828125 147.3828125 C-218.47728565 149.90220759 -216.92095813 151.1464916 -213.58422852 151.81323242 C-209.1215555 151.13829955 -206.04057416 148.61225141 -202.390625 146.05859375 C-201.56357559 145.4942009 -200.73652618 144.92980804 -199.88441467 144.34831238 C-198.08726326 143.12031387 -196.29365018 141.88712484 -194.50317383 140.64941406 C-189.64813257 137.29393956 -184.76720353 133.9764007 -179.890625 130.65234375 C-178.37811661 129.61891342 -178.37811661 129.61891342 -176.83505249 128.56460571 C-166.55043695 121.54662326 -156.15190659 114.70719505 -145.73828125 107.8828125 C-130.76456425 98.0584341 -115.8791056 88.11270398 -101.05078125 78.0703125 C-89.06169107 69.95177968 -77.06823732 61.87270386 -64.79882812 54.1809082 C-58.80523778 50.40810189 -52.93880848 46.48429868 -47.109375 42.46484375 C-44.83823363 40.90988565 -42.56627056 39.35613353 -40.29425049 37.80245972 C-38.81063143 36.78097567 -37.33211326 35.75203907 -35.85906982 34.71536255 C-33.80618844 33.27088034 -31.73743955 31.85233886 -29.6640625 30.4375 C-29.05267929 29.99682693 -28.44129608 29.55615387 -27.81138611 29.10212708 C-24.93890444 27.17437581 -23.31002573 26.30377059 -19.83325195 26.78442383 C-15.77119687 28.88226043 -12.05151731 31.3054743 -8.29296875 33.90234375 C-7.46733429 34.46390671 -6.64169983 35.02546967 -5.79104614 35.60404968 C-4.00126091 36.82210806 -2.21356487 38.04324067 -0.42773438 39.26708984 C4.41930301 42.58786546 9.2825327 45.88477916 14.14453125 49.18359375 C15.14977844 49.86636383 16.15502563 50.54913391 17.19073486 51.25259399 C27.48094018 58.23141943 37.86517979 65.06387933 48.26171875 71.8828125 C63.72207271 82.03157592 79.09241018 92.304024 94.4057312 102.67315674 C110.49075586 113.56118923 126.68291016 124.28069535 142.92578125 134.93164062 C143.80676483 135.51000671 144.68774841 136.0883728 145.59542847 136.68426514 C147.28357694 137.79207445 148.97276954 138.89829466 150.66311646 140.00274658 C155.64563951 143.27067264 160.49526084 146.63830063 165.18920898 150.31298828 C168.00722278 151.76763977 170.13609548 151.66952817 173.26171875 151.3828125 C175.78178719 149.94619939 175.78178719 149.94619939 177.26171875 147.3828125 C178.17892799 143.96924906 178.17892799 143.96924906 177.26171875 140.3828125 C172.93522618 135.48711198 166.90451134 131.99417748 161.46484375 128.47265625 C160.61569397 127.91675308 159.76654419 127.36084991 158.8916626 126.7881012 C157.05953581 125.58899195 155.22605561 124.39194851 153.39135742 123.19677734 C148.41874438 119.95646333 143.45734383 116.69908203 138.49609375 113.44140625 C136.9639624 112.43580154 136.9639624 112.43580154 135.40087891 111.40988159 C125.12739677 104.65649554 114.9398292 97.77873519 104.76171875 90.8828125 C90.32994097 81.11043631 75.83066359 71.44946271 61.26171875 61.8828125 C43.44009704 50.18009826 25.72984803 38.31995516 8.07498169 26.36727905 C6.4384552 25.26026954 4.80100918 24.15461796 3.16256714 23.05044556 C-0.61615216 20.50340222 -4.38145359 17.94115613 -8.11865234 15.33349609 C-8.80291794 14.86195602 -9.48718353 14.39041595 -10.19218445 13.90458679 C-11.45747889 13.03243534 -12.71682335 12.15155569 -13.96858215 11.26008606 C-16.33953619 9.63799837 -18.38276873 8.45783116 -21.20727539 7.86181641 C-24.89786844 8.62150827 -27.71831379 10.50632543 -30.81640625 12.55078125 Z M-27.44140625 48.5847168 C-28.52192261 49.31696724 -28.52192261 49.31696724 -29.62426758 50.06401062 C-30.79445435 50.87730583 -30.79445435 50.87730583 -31.98828125 51.70703125 C-33.23097778 52.55362053 -33.23097778 52.55362053 -34.4987793 53.41731262 C-36.30118801 54.64634974 -38.10079934 55.87949686 -39.89794922 57.11621094 C-44.76925768 60.46759076 -49.66136903 63.78839591 -54.55078125 67.11328125 C-56.06792725 68.14671158 -56.06792725 68.14671158 -57.61572266 69.20101929 C-67.9162341 76.20771256 -78.32017499 83.05277283 -88.73828125 89.8828125 C-105.82547019 101.09616625 -122.80409632 112.46262358 -139.72070312 123.93164062 C-140.57985825 124.513461 -141.43901337 125.09528137 -142.32420349 125.69473267 C-143.90352256 126.76455543 -145.48195957 127.83568234 -147.05921936 128.90853882 C-147.77903488 129.39617706 -148.4988504 129.88381531 -149.24047852 130.38623047 C-150.24472886 131.10224127 -150.24472886 131.10224127 -151.26926708 131.83271694 C-153.73828125 133.3828125 -153.73828125 133.3828125 -156.5398674 134.43004131 C-160.14836453 135.99624615 -162.18148637 137.36202916 -164.73828125 140.3828125 C-166.91723061 147.38539168 -166.12347715 155.23824443 -165.98706055 162.47436523 C-165.98368997 164.79807107 -165.98516081 167.12178818 -165.99107838 169.44548893 C-165.99356077 175.66578346 -165.92983846 181.88374789 -165.85236359 188.10349274 C-165.78969092 193.94085487 -165.78676828 199.77765195 -165.77893066 205.61535645 C-165.72122279 222.6839835 -165.56764953 239.75217747 -165.42578125 256.8203125 C-165.19890625 294.9559375 -164.97203125 333.0915625 -164.73828125 372.3828125 C-70.35828125 372.3828125 24.02171875 372.3828125 121.26171875 372.3828125 C122.16921875 334.7009375 123.07671875 297.0190625 124.01171875 258.1953125 C124.41229492 246.34729736 124.81287109 234.49928223 125.22558594 222.29223633 C125.37284188 211.56597628 125.37284188 211.56597628 125.46124268 200.8391571 C125.5019098 196.09435104 125.66490407 191.37169666 125.90704346 186.63298035 C127.93353932 161.09100753 127.93353932 161.09100753 119.34022713 137.87705946 C110.00485202 128.12210359 97.9385711 121.74156265 85.94520831 115.8356877 C76.1048275 110.97839084 67.23330075 104.92629586 58.26769888 98.63117921 C53.93689557 95.60967387 49.55219693 92.66779124 45.171875 89.71875 C44.1837381 89.05139832 43.1956012 88.38404663 42.17752075 87.69647217 C29.71809865 79.30785801 17.15809978 71.07024974 4.59765625 62.83398438 C3.71651154 62.25561829 2.83536682 61.6772522 1.92752075 61.08135986 C0.24060678 59.97415082 -1.44697039 58.86795142 -3.13528442 57.76287842 C-8.15534862 54.465564 -13.07095541 51.07863923 -17.86108398 47.45263672 C-21.58094404 45.33266965 -24.21325691 46.36596491 -27.44140625 48.5847168 Z M-183.3984375 152.75390625 C-184.10935547 153.24568359 -184.82027344 153.73746094 -185.55273438 154.24414062 C-186.29458984 154.76427734 -187.03644531 155.28441406 -187.80078125 155.8203125 C-188.54650391 156.33658203 -189.29222656 156.85285156 -190.06054688 157.38476562 C-193.55493284 159.69200587 -193.55493284 159.69200587 -196.73828125 162.3828125 C-196.83613246 165.08873495 -196.86821805 167.76912426 -196.85853577 170.47547913 C-196.85939019 171.33387955 -196.86024462 172.19227997 -196.86112493 173.07669252 C-196.86278237 175.9757096 -196.85725407 178.87466982 -196.85180664 181.77368164 C-196.8515248 183.84276834 -196.85168244 185.91185513 -196.85224915 187.98094177 C-196.85253724 193.61707513 -196.84663858 199.25318741 -196.83967519 204.88931584 C-196.83344364 210.77235512 -196.83283801 216.65539482 -196.83164978 222.53843689 C-196.82853587 233.68735478 -196.82032169 244.83626292 -196.81030029 255.9851765 C-196.79914099 268.67419518 -196.79362917 281.36321432 -196.78860486 294.05223668 C-196.77813912 320.16243422 -196.76033821 346.2726224 -196.73828125 372.3828125 C-190.46828125 372.3828125 -184.19828125 372.3828125 -177.73828125 372.3828125 C-177.73828125 299.1228125 -177.73828125 225.8628125 -177.73828125 150.3828125 C-180.3430901 150.3828125 -181.26905802 151.27297546 -183.3984375 152.75390625 Z M134.26171875 150.3828125 C134.26171875 223.6428125 134.26171875 296.9028125 134.26171875 372.3828125 C140.53171875 372.3828125 146.80171875 372.3828125 153.26171875 372.3828125 C153.65551788 345.06233441 153.95875659 317.74254147 154.14252567 290.41979504 C154.23012814 277.73273705 154.34951726 265.0474764 154.54418945 252.36157227 C154.71381922 241.3022824 154.82334974 230.24429411 154.86122316 219.18373948 C154.88335946 213.32824777 154.93522977 207.47647889 155.05912971 201.62218285 C155.17492361 196.10597668 155.21004749 190.59500766 155.18454933 185.07770157 C155.18920979 183.05827233 155.22281989 181.03866026 155.28821182 179.02028465 C155.88153891 168.53534552 155.88153891 168.53534552 151.53289485 159.44363999 C147.07592462 155.70304287 140.33269732 150.3828125 134.26171875 150.3828125 Z M-206.73828125 385.3828125 C-206.73828125 391.6528125 -206.73828125 397.9228125 -206.73828125 404.3828125 C-84.63828125 404.3828125 37.46171875 404.3828125 163.26171875 404.3828125 C163.26171875 398.1128125 163.26171875 391.8428125 163.26171875 385.3828125 C41.16171875 385.3828125 -80.93828125 385.3828125 -206.73828125 385.3828125 Z " fill="#6a5f5f" transform="translate(277.73828125,51.6171875)"/>
<path d="M0 0 C2.86573343 1.3105433 2.86573343 1.3105433 5.1015625 0.1796875 C5.93429687 -0.25085938 6.76703125 -0.68140625 7.625 -1.125 C18.69520125 -6.38884404 30.84935373 -9.54056483 43 -11 C43.90234375 -11.11085937 44.8046875 -11.22171875 45.734375 -11.3359375 C58.6641676 -12.65749089 71.70637832 -12.39188811 84.625 -11.125 C85.8315625 -11.00741333 85.8315625 -11.00741333 87.0625 -10.88745117 C101.21087761 -9.35539575 101.21087761 -9.35539575 105.0625 -6.4375 C106.51024196 -2.6733709 106.22982671 1.01633702 106 5 C107.10859375 4.95359375 108.2171875 4.9071875 109.359375 4.859375 C110.82288968 4.82184898 112.28643356 4.78544971 113.75 4.75 C114.47960937 4.71648437 115.20921875 4.68296875 115.9609375 4.6484375 C119.29640279 4.58779268 121.46809642 4.61414211 124.21183872 6.60453033 C126.59087756 9.79155571 126.50051955 11.75947704 126.50120544 15.71813965 C126.50950704 16.72971201 126.50950704 16.72971201 126.51797634 17.76172018 C126.53158542 20.02055859 126.51661361 22.27829249 126.50170898 24.53710938 C126.5054921 26.15680918 126.51099208 27.77650575 126.51808167 29.39619446 C126.53205467 33.79498354 126.52085368 38.19338229 126.50437045 42.59214973 C126.4905301 47.19339436 126.49697887 51.7946161 126.50050354 56.39587402 C126.50320647 64.12319232 126.48972298 71.85035536 126.46655273 79.57763672 C126.43994246 88.51408018 126.43819558 97.45026403 126.4499411 106.38673353 C126.46071677 114.97992751 126.45453347 123.57302748 126.44038582 132.16621399 C126.43462418 135.82483642 126.43471009 139.4833901 126.43945122 143.14201355 C126.44422023 147.4496235 126.43412258 151.75694883 126.41249657 156.06450462 C126.40692747 157.64634936 126.40646453 159.22822144 126.41144943 160.81006813 C126.41739644 162.96764904 126.40490963 165.12435804 126.38768005 167.28186035 C126.38403521 169.09368679 126.38403521 169.09368679 126.38031673 170.94211578 C126 174 126 174 125.0712595 176.38813782 C121.58690743 179.09967412 117.75660794 178.54900522 113.47216797 178.50793457 C111.9891686 178.51729451 111.9891686 178.51729451 110.47620964 178.52684355 C107.14796298 178.54285748 103.82044019 178.53013621 100.4921875 178.51757812 C98.11240205 178.52299549 95.73261995 178.53011597 93.35284424 178.53881836 C87.55087279 178.55519974 81.74913319 178.55275329 75.94715452 178.5411678 C71.23279845 178.53214293 66.51850041 178.53090535 61.80413818 178.53526306 C60.79859101 178.53618246 60.79859101 178.53618246 59.77272975 178.53712043 C58.41099753 178.5383993 57.04926533 178.53969615 55.68753314 178.5410108 C42.9114209 178.55242348 30.13542337 178.53929216 17.35932994 178.51780933 C6.39118854 178.49993768 -4.57678353 178.5030416 -15.54492188 178.52148438 C-28.27456642 178.54287901 -41.00411036 178.55132478 -53.73377037 178.53903532 C-55.09055963 178.53776109 -56.4473489 178.53650361 -57.80413818 178.53526306 C-58.47174577 178.53464596 -59.13935335 178.53402886 -59.82719147 178.53339306 C-64.53718292 178.52993591 -69.24711069 178.5357763 -73.95709229 178.54518127 C-80.29364933 178.55670597 -86.62988552 178.5487757 -92.96640778 178.52560425 C-95.29690263 178.52029908 -97.62742433 178.52186158 -99.95790863 178.53065491 C-103.12969739 178.54152243 -106.30044619 178.52795288 -109.47216797 178.50793457 C-110.40299257 178.51685746 -111.33381718 178.52578034 -112.29284859 178.53497362 C-118.40933594 178.45965707 -118.40933594 178.45965707 -121.0712595 176.38813782 C-122.29768969 173.23452891 -122.38086231 170.67091629 -122.38768005 167.28186035 C-122.39306559 166.60747878 -122.39845113 165.9330972 -122.40399987 165.23827982 C-122.41830202 162.97963087 -122.41117053 160.72156614 -122.40405273 158.46289062 C-122.4097551 156.8431908 -122.41671884 155.22349499 -122.42485046 153.60380554 C-122.44281062 149.20509595 -122.4416083 144.80658553 -122.43590808 140.40785027 C-122.43282074 136.7371821 -122.43890352 133.06655245 -122.44494683 129.39588976 C-122.45899946 120.7380151 -122.45742427 112.0802391 -122.44604492 103.42236328 C-122.43455906 94.48588452 -122.44864549 85.5497057 -122.4754414 76.61326647 C-122.49757933 68.94352619 -122.5042402 61.27388021 -122.49836498 53.60411024 C-122.49499009 49.02199592 -122.49744584 44.44007395 -122.51461601 39.85798645 C-122.53005309 35.55033502 -122.52616594 31.243129 -122.50731087 26.93549538 C-122.50361615 25.35364176 -122.50675911 23.77175537 -122.51719666 22.18993187 C-122.53034886 20.03215053 -122.51891302 17.87585638 -122.50120544 15.71813965 C-122.50099616 14.51025536 -122.50078688 13.30237106 -122.50057125 12.05788422 C-121.89706214 8.3711743 -120.99882283 7.17543086 -118 5 C-115.10550051 4.7093876 -112.62050065 4.61813955 -109.75 4.75 C-108.63238281 4.77707031 -108.63238281 4.77707031 -107.4921875 4.8046875 C-105.66090299 4.85164351 -103.83028351 4.92338348 -102 5 C-102.061875 3.783125 -102.12375 2.56625 -102.1875 1.3125 C-102.15659187 -2.62110382 -101.77539919 -5.0204462 -99 -8 C-96.38625887 -8.86014192 -94.24556256 -9.37357779 -91.5625 -9.75 C-90.84022217 -9.86577393 -90.11794434 -9.98154785 -89.3737793 -10.10083008 C-87.2520659 -10.42900285 -85.12876512 -10.72167905 -83 -11 C-82.01515625 -11.13277344 -81.0303125 -11.26554688 -80.015625 -11.40234375 C-52.42684842 -14.31272047 -25.45976769 -10.8588248 0 0 Z M-77 1.9375 C-78.57201172 2.06801758 -78.57201172 2.06801758 -80.17578125 2.20117188 C-81.16964844 2.28818359 -82.16351563 2.37519531 -83.1875 2.46484375 C-84.08855469 2.543396 -84.98960937 2.62194824 -85.91796875 2.70288086 C-87.98548262 2.78544322 -87.98548262 2.78544322 -89 4 C-89.09654727 5.88561518 -89.12187241 7.77489455 -89.12025452 9.66297913 C-89.12162918 10.89282028 -89.12300385 12.12266144 -89.12442017 13.38977051 C-89.12088056 14.76513696 -89.11724574 16.14050317 -89.11352539 17.51586914 C-89.11324352 18.95442198 -89.11340124 20.39297496 -89.1139679 21.83152771 C-89.11425589 25.74871143 -89.10835884 29.66586479 -89.10139394 33.58304143 C-89.09516074 37.67233837 -89.09455663 41.76163593 -89.09336853 45.85093689 C-89.09025511 53.59992398 -89.08204159 61.34889703 -89.07201904 69.09787792 C-89.06085822 77.91756209 -89.05534753 86.73724691 -89.05032361 95.55693638 C-89.03985898 113.70463223 -89.02225934 131.85231499 -89 150 C-88.11917755 149.96643402 -87.2383551 149.93286804 -86.33084106 149.89828491 C-83.00951558 149.77420748 -79.6880859 149.6548165 -76.3664856 149.53842163 C-74.93888828 149.48747399 -73.51135305 149.43475038 -72.08389282 149.38009644 C-47.98385766 148.46118412 -26.89858041 152.36713986 -4 160 C-4 111.82 -4 63.64 -4 14 C-14.28372758 8.75255829 -14.28372758 8.75255829 -24.9375 5.25 C-25.72817871 5.04737549 -26.51885742 4.84475098 -27.33349609 4.63598633 C-43.68221249 0.70456254 -60.34274004 0.44911365 -77 1.9375 Z M9 13 C9 61.18 9 109.36 9 159 C14.00932468 157.99813506 18.77511158 156.57910905 23.61914062 154.9921875 C46.72785925 147.87513613 68.57412208 150 93 150 C93 101.82 93 53.64 93 4 C83.46322295 2.24630003 83.46322295 2.24630003 74.0859375 1.69921875 C73.39259308 1.69357407 72.69924866 1.68792938 71.9848938 1.68211365 C69.78135628 1.67027431 67.57853388 1.67625011 65.375 1.6875 C64.61888428 1.68965515 63.86276855 1.6918103 63.08374023 1.69403076 C44.16162838 1.78073288 26.13397684 4.43301158 9 13 Z M-109 18 C-109 66.51 -109 115.02 -109 165 C-104.71 165 -100.42 165 -96 165 C-96.81139938 164.4555574 -97.62279877 163.91111481 -98.45878601 163.35017395 C-102.85575704 158.89169995 -101.69779792 152.22443402 -101.65942383 146.3972168 C-101.66788006 144.99746779 -101.67852557 143.59773054 -101.69119263 142.19801331 C-101.71932798 138.40487767 -101.71686955 134.61230772 -101.70889878 130.81909919 C-101.70577301 126.85252533 -101.73081008 122.88613141 -101.75285339 118.91963196 C-101.7903026 111.41158109 -101.80244189 103.90371135 -101.8054778 96.3955763 C-101.81016769 87.84656355 -101.84308873 79.29773236 -101.87837565 70.74879968 C-101.95031942 53.16587981 -101.98682838 35.58306009 -102 18 C-104.31 18 -106.62 18 -109 18 Z M106 18 C105.99668985 18.72298908 105.99337971 19.44597816 105.98996925 20.19087601 C105.90877987 37.77568901 105.8167008 55.36041112 105.71247292 72.94510269 C105.6623324 81.44889779 105.61588965 89.95268317 105.578125 98.45654297 C105.54520335 105.8677477 105.50537119 113.27887739 105.45720994 120.68999934 C105.43194665 124.61481453 105.41016488 128.53957994 105.39665604 132.46445465 C105.38383411 136.15804657 105.36177838 139.8514678 105.33261681 143.54496574 C105.31921239 145.5480356 105.31561978 147.55116356 105.31230164 149.55427551 C105.30113815 150.74616989 105.28997467 151.93806427 105.2784729 153.16607666 C105.27294214 154.20217197 105.26741138 155.23826729 105.26171303 156.30575943 C104.88247319 160.20989585 103.75027249 162.24972751 101 165 C104.96 165 108.92 165 113 165 C113 116.49 113 67.98 113 18 C110.69 18 108.38 18 106 18 Z M36 164 C36 164.33 36 164.66 36 165 C56.13 165 76.26 165 97 165 C97 164.67 97 164.34 97 164 C76.96210526 159.93719851 56.04391387 159.60301494 36 164 Z M-94 164 C-94 164.33 -94 164.66 -94 165 C-73.54 165 -53.08 165 -32 165 C-32 164.67 -32 164.34 -32 164 C-52.47729206 160.59812729 -73.56669045 159.34271589 -94 164 Z " fill="#6a5f5f" transform="translate(254,216)"/>
<path d="M0 0 C1.10078888 -0.00855011 1.10078888 -0.00855011 2.22381592 -0.01727295 C3.75987336 -0.0266409 5.29595016 -0.03322384 6.83203125 -0.03710938 C9.18003552 -0.04690906 11.52719684 -0.07804485 13.875 -0.109375 C15.37499486 -0.11589793 16.8749959 -0.12115118 18.375 -0.125 C19.07296692 -0.1373468 19.77093384 -0.1496936 20.49005127 -0.16241455 C23.5679011 -0.14830336 25.63646429 0.04156524 28.33886719 1.57128906 C30.44832443 3.74581284 30.77521436 5.19658181 30.921875 8.203125 C29.94457281 10.90950029 29.51675055 11.90568722 26.921875 13.203125 C24.57884209 13.32316618 22.23261249 13.38250794 19.88671875 13.4140625 C18.43008081 13.44008687 16.97345664 13.46689044 15.5168457 13.49438477 C14.37416733 13.51434006 14.37416733 13.51434006 13.20840454 13.53469849 C1.65792027 13.74823231 -9.55805483 14.02035722 -20.87109375 16.58203125 C-24.93906897 17.3698608 -29.2657309 18.19701854 -33.015625 16.140625 C-34.71147787 13.04818742 -34.50873157 10.64797759 -34.078125 7.203125 C-30.9484221 4.05057756 -27.59774168 3.42645495 -23.328125 2.578125 C-22.15765625 2.33835937 -20.9871875 2.09859375 -19.78125 1.8515625 C-13.15681784 0.69158809 -6.72407039 0.04142299 0 0 Z " fill="#6a5f5f" transform="translate(306.078125,317.796875)"/>
<path d="M0 0 C1.47726562 -0.01836914 1.47726562 -0.01836914 2.984375 -0.03710938 C8.78541711 -0.04871146 13.86459869 0.2978572 19.375 2.1875 C21.0625 5 21.0625 5 21.375 8.1875 C20.06632936 11.13200894 19.28097137 12.73451431 16.375 14.1875 C14.58792744 14.23715623 12.79893812 14.22374433 11.01171875 14.1796875 C-2.77330496 13.94549789 -15.8533021 14.47876472 -29.44091797 16.81982422 C-39.01489851 18.43154059 -39.01489851 18.43154059 -42.125 17.1875 C-44.4051914 14.1472448 -44.08573582 11.87338657 -43.625 8.1875 C-41.56182806 5.51294448 -39.79186817 4.71750156 -36.52734375 4.0546875 C-35.72490234 3.88839844 -34.92246094 3.72210938 -34.09570312 3.55078125 C-33.25974609 3.38964844 -32.42378906 3.22851562 -31.5625 3.0625 C-30.75361328 2.89363281 -29.94472656 2.72476563 -29.11132812 2.55078125 C-19.41844759 0.59526762 -9.8745955 0.00651359 0 0 Z " fill="#6a5f5f" transform="translate(315.625,244.8125)"/>
<path d="M0 0 C1.14460693 0.00346436 2.28921387 0.00692871 3.46850586 0.01049805 C16.40910928 0.17350516 30.81443181 0.88770813 42.8125 6.3125 C44.37188978 9.43127956 44.1732834 11.88505771 43.8125 15.3125 C42 17.375 42 17.375 38.8125 18.3125 C35.08209082 17.97631061 31.46899269 17.10443839 27.8125 16.3125 C16.42256267 14.0961591 5.28141286 14.18088837 -6.28466797 14.47412109 C-7.50428223 14.4942627 -8.72389648 14.5144043 -9.98046875 14.53515625 C-11.62825317 14.57781616 -11.62825317 14.57781616 -13.30932617 14.62133789 C-16.56230217 14.27228245 -17.87506022 13.58564829 -20.1875 11.3125 C-21.16691502 8.58412959 -21.33245645 6.94668445 -20.6875 4.125 C-16.18575877 -1.31460399 -6.34413448 -0.03105553 0 0 Z " fill="#6a5f5f" transform="translate(196.1875,244.6875)"/>
<path d="M0 0 C1.49490967 0.00519653 1.49490967 0.00519653 3.02001953 0.01049805 C9.97961841 0.10992089 16.79674638 0.65251712 23.6875 1.625 C24.52369873 1.74254639 25.35989746 1.86009277 26.22143555 1.98120117 C40.17843532 4.17843532 40.17843532 4.17843532 44.3125 8.3125 C44.97916667 14.42361111 44.97916667 14.42361111 42.8125 17.3125 C38.19673491 19.15880604 32.70389909 17.38856318 27.88671875 16.55859375 C16.23639185 14.59471914 5.0174103 14.05380585 -6.80004883 14.42358398 C-8.44783325 14.46140991 -8.44783325 14.46140991 -10.12890625 14.5 C-11.10545166 14.53480469 -12.08199707 14.56960938 -13.08813477 14.60546875 C-16.17002422 14.25811575 -17.46950753 13.44390418 -19.6875 11.3125 C-20.65775659 8.60964235 -20.81173569 6.93367844 -20.25 4.125 C-15.86923454 -0.95668793 -6.16557612 -0.03512103 0 0 Z " fill="#6a5f5f" transform="translate(195.6875,268.6875)"/>
<path d="M0 0 C1.99898874 2.8217018 1.56249455 5.30863734 1.1484375 8.62109375 C-0.2890625 10.62109375 -0.2890625 10.62109375 -2.8515625 11.62109375 C-4.7409668 11.55493164 -4.7409668 11.55493164 -6.92578125 11.28125 C-7.72927002 11.18086426 -8.53275879 11.08047852 -9.3605957 10.97705078 C-11.70622153 10.64186285 -14.03957875 10.26682367 -16.375 9.8671875 C-28.01441835 7.89945427 -39.15545994 7.3695669 -50.96435547 7.90795898 C-59.22846959 8.14617204 -59.22846959 8.14617204 -62.6328125 5.27734375 C-63.8515625 2.62109375 -63.8515625 2.62109375 -63.7890625 -0.00390625 C-62.78151694 -2.55635499 -61.93636663 -3.63587329 -59.8515625 -5.37890625 C-45.07402028 -8.18154357 -12.66702824 -9.43346196 0 0 Z " fill="#6a5f5f" transform="translate(238.8515625,299.37890625)"/>
<path d="M0 0 C1.45792969 0.02513672 1.45792969 0.02513672 2.9453125 0.05078125 C6.72687417 0.26918828 8.72145761 0.77327945 11.6875 3.1875 C13 6 13 6 12.375 9.1875 C11 12 11 12 9 14 C6.62768555 14.17944336 6.62768555 14.17944336 3.63671875 14.08984375 C2.53183105 14.06784912 1.42694336 14.04585449 0.28857422 14.02319336 C-0.89978027 13.99491455 -2.08813477 13.96663574 -3.3125 13.9375 C-14.72922475 13.78642085 -25.50097908 14.71019619 -36.73364258 16.63232422 C-39.12714034 17.02062624 -41.51968074 17.35954447 -43.92578125 17.66015625 C-44.64677002 17.75047119 -45.36775879 17.84078613 -46.1105957 17.93383789 C-48 18 -48 18 -50.5625 17 C-52.7576472 13.94588215 -52.45650376 11.6520301 -52 8 C-49.9046783 5.26379929 -48.08525607 4.5171192 -44.75390625 3.8671875 C-43.92286377 3.7012207 -43.09182129 3.53525391 -42.2355957 3.36425781 C-41.35347412 3.20280273 -40.47135254 3.04134766 -39.5625 2.875 C-38.6552417 2.70323242 -37.7479834 2.53146484 -36.81323242 2.35449219 C-24.52050003 0.09411294 -12.46278766 -0.25912727 0 0 Z " fill="#6a5f5f" transform="translate(324,269)"/>
<path d="M0 0 C1 1 1 1 1.25 4.375 C1 8 1 8 -0.0625 9.9375 C-4.88010104 12.57941025 -11.04828318 10.70832485 -16.125 9.5625 C-25.06440016 7.67780574 -33.68736544 6.94153547 -42.8203125 7.05078125 C-43.85671875 7.06133545 -44.893125 7.07188965 -45.9609375 7.08276367 C-48.04713501 7.11061183 -50.1331941 7.1534032 -52.21875 7.2121582 C-53.66121094 7.23475708 -53.66121094 7.23475708 -55.1328125 7.2578125 C-55.99793457 7.2798877 -56.86305664 7.30196289 -57.75439453 7.32470703 C-60.4990699 6.92783616 -61.3171111 6.15470235 -63 4 C-63.875 2.125 -63.875 2.125 -64 0 C-61.73846154 -4.63076923 -61.73846154 -4.63076923 -59 -6 C-40.84442956 -9.17281814 -16.74102867 -7.90548576 0 0 Z " fill="#6a5f5f" transform="translate(239,324)"/>
<path d="M0 0 C0.83088135 0.0299707 1.6617627 0.05994141 2.51782227 0.09082031 C6.77295716 0.3450174 9.8153009 0.62067758 12.8125 3.8125 C13.85089699 6.70517734 14.04779002 8.16092765 13 11.0625 C11.8125 12.8125 11.8125 12.8125 9.8125 13.8125 C8.29416493 13.87346635 6.77311081 13.87264292 5.25390625 13.83984375 C4.31949707 13.82614746 3.38508789 13.81245117 2.42236328 13.79833984 C1.4167334 13.7823877 0.41110352 13.76643555 -0.625 13.75 C-8.32416613 13.68850314 -15.90455735 13.86148346 -23.5625 14.6875 C-24.30298584 14.76605225 -25.04347168 14.84460449 -25.80639648 14.92553711 C-30.33151966 15.45932218 -34.71443921 16.31581709 -39.14355469 17.3840332 C-42.99497536 18.19139623 -46.59712637 18.68464038 -50.125 16.75 C-51.82085287 13.65756242 -51.61810657 11.25735259 -51.1875 7.8125 C-40.42814367 -2.4758246 -13.77499531 -0.57560302 0 0 Z " fill="#6a5f5f" transform="translate(323.1875,293.1875)"/>
</svg>
