<?xml version="1.0" standalone="no"?>
<!DOCTYPE svg PUBLIC "-//W3C//DTD SVG 20010904//EN"
 "http://www.w3.org/TR/2001/REC-SVG-20010904/DTD/svg10.dtd">
<svg version="1.0" xmlns="http://www.w3.org/2000/svg"
 width="512.000000pt" height="512.000000pt" viewBox="0 0 512.000000 512.000000"
 preserveAspectRatio="xMidYMid meet">

<g transform="translate(0.000000,512.000000) scale(0.100000,-0.100000)"
fill="#000000" stroke="none" style="fill: #6a5f5f">
<path d="M963 4736 c-126 -31 -254 -127 -311 -233 -64 -121 -62 -96 -62 -1021
l0 -840 -170 -202 c-182 -215 -223 -280 -245 -389 -23 -113 -38 -384 -32 -566
8 -198 24 -283 97 -496 l50 -146 0 -210 c0 -198 1 -212 21 -237 l20 -26 585 0
c571 0 584 0 604 20 19 19 20 33 20 276 l0 255 40 67 c47 77 79 172 87 252 5
59 -6 83 -43 94 -38 11 -64 -22 -79 -101 -16 -86 -46 -156 -91 -220 l-34 -48
0 -238 0 -237 -502 2 -503 3 -5 200 -6 200 -43 115 c-70 188 -91 291 -98 480
-6 166 8 424 28 531 6 32 25 82 43 113 31 55 234 305 249 306 4 0 7 -81 7
-179 l0 -179 -36 -43 c-41 -49 -77 -116 -93 -174 -6 -22 -18 -136 -26 -254
-16 -224 -16 -229 26 -252 22 -12 64 3 73 27 3 9 13 111 21 227 13 182 18 217
39 263 41 89 157 196 305 283 104 62 165 24 165 -103 0 -79 -32 -149 -107
-238 -32 -37 -57 -76 -57 -89 0 -12 17 -41 38 -64 116 -125 156 -306 117 -529
-17 -97 -11 -122 30 -132 43 -11 70 17 86 88 15 69 19 284 6 361 l-8 47 854 0
c815 0 855 1 870 18 22 24 22 65 0 83 -10 8 -40 25 -67 39 -65 33 -99 84 -104
161 -2 32 -1 74 2 94 9 47 69 113 126 137 24 11 48 25 52 31 4 7 8 607 8 1334
l0 1322 -22 15 c-20 14 -126 16 -948 15 -703 0 -937 -4 -977 -13z m1827 -1341
l0 -1235 -693 0 c-763 0 -737 2 -737 -60 0 -63 -32 -60 666 -60 l634 0 -23
-47 c-13 -27 -27 -60 -31 -75 l-6 -28 -128 0 c-142 0 -172 -10 -172 -57 0 -55
20 -63 165 -63 l132 0 12 -42 c7 -24 22 -58 33 -75 l20 -33 -771 0 -770 0 -37
56 c-25 38 -34 60 -28 68 45 60 96 146 110 189 27 79 24 189 -8 258 -38 83
-97 122 -183 121 -56 -1 -83 -13 -182 -77 l-83 -55 2 1083 3 1082 23 56 c29
71 90 141 156 179 96 55 86 169 86 -1017 0 -960 1 -1048 17 -1065 23 -25 68
-23 87 4 14 20 16 139 16 1075 l0 1053 845 0 845 0 0 -1235z"/>
<path d="M1307 1872 c-21 -23 -22 -66 -1 -86 13 -14 50 -16 249 -16 230 0 234
0 249 22 21 30 20 54 -4 78 -19 19 -33 20 -248 20 -209 0 -230 -2 -245 -18z"/>
<path d="M2012 1874 c-27 -19 -29 -64 -4 -87 26 -23 94 -22 115 1 56 61 -41
136 -111 86z"/>
<path d="M4438 3593 c-55 -61 -448 -644 -448 -667 0 -43 27 -55 135 -58 l100
-3 3 -629 c2 -568 4 -631 19 -648 15 -16 36 -18 238 -18 202 0 223 2 238 18
15 17 17 77 17 650 l0 632 103 0 c88 0 106 3 120 18 10 10 17 27 17 38 0 17
-411 625 -457 676 -23 26 -55 22 -85 -9z m208 -374 l154 -224 -52 -3 c-70 -3
-93 -9 -112 -28 -14 -14 -16 -86 -16 -645 l0 -629 -135 0 -135 0 0 625 0 626
-25 24 c-21 22 -33 25 -90 25 -37 0 -65 4 -63 8 10 23 311 453 315 449 2 -3
74 -105 159 -228z"/>
<path d="M3475 2405 l-25 -24 0 -626 0 -625 -98 0 c-103 0 -119 -6 -135 -52
-7 -20 8 -43 220 -352 237 -344 238 -346 272 -346 16 0 36 9 48 23 29 32 438
628 446 650 7 19 -8 56 -27 69 -6 4 -55 8 -108 8 l-98 0 0 629 0 630 -26 20
c-25 20 -39 21 -236 21 -208 0 -209 0 -233 -25z m373 -729 c2 -563 4 -631 18
-647 12 -14 35 -19 90 -21 l74 -3 -155 -225 c-86 -124 -159 -226 -163 -227 -4
-2 -77 100 -163 225 l-157 227 71 3 c118 5 107 -62 107 662 0 345 3 630 7 634
4 3 66 5 137 4 l131 -3 3 -629z" />
</g>
</svg>
