<?xml version="1.0" standalone="no"?>
<!DOCTYPE svg PUBLIC "-//W3C//DTD SVG 20010904//EN"
 "http://www.w3.org/TR/2001/REC-SVG-20010904/DTD/svg10.dtd">
<svg version="1.0" xmlns="http://www.w3.org/2000/svg"
 width="512.000000pt" height="512.000000pt" viewBox="0 0 512.000000 512.000000"
 preserveAspectRatio="xMidYMid meet">

<g transform="translate(0.000000,512.000000) scale(0.100000,-0.100000)"
fill="#6a5f5f" stroke="none">
<path d="M382 5010 c-64 -40 -62 -1 -62 -960 l0 -870 -105 0 c-123 0 -165 -13
-195 -62 -18 -30 -20 -50 -20 -216 0 -201 7 -234 56 -267 28 -19 49 -20 505
-20 455 0 478 1 498 19 14 13 21 31 21 57 0 71 12 69 -487 69 l-443 0 0 135 0
135 2410 0 2410 0 0 -135 0 -135 -1813 0 c-2022 0 -1857 6 -1857 -69 0 -26 7
-44 21 -57 21 -19 66 -19 1868 -19 1815 0 1846 0 1875 20 49 33 56 66 56 267
0 269 -8 278 -260 278 l-150 0 0 75 c0 73 1 75 24 75 25 0 66 41 66 66 0 31
-25 65 -57 76 l-33 12 0 73 c0 71 1 73 24 73 27 0 66 42 66 70 0 26 -36 67
-65 74 -24 6 -25 10 -25 81 0 73 1 75 24 75 27 0 66 42 66 71 0 10 -11 31 -24
46 l-24 28 -619 3 c-340 2 -642 0 -671 -3 -39 -5 -62 -14 -85 -35 l-32 -28 -2
-309 c-2 -169 -3 -356 -3 -415 l0 -108 -135 0 -135 0 0 700 c0 758 1 742 -53
772 -16 10 -123 14 -422 18 l-400 5 -5 140 c-8 216 -6 215 -317 215 -199 0
-221 -2 -250 -20 -54 -32 -63 -63 -63 -210 l0 -130 -200 0 -200 0 0 140 0 140
-34 38 -34 37 -339 3 c-325 2 -339 2 -371 -18z m628 -335 l0 -205 -267 2 -268
3 -3 203 -2 202 270 0 270 0 0 -205z m1030 -295 l0 -500 -165 0 -165 0 0 500
0 500 165 0 165 0 0 -500z m-480 -180 l0 -320 -200 0 -200 0 0 320 0 320 200
0 200 0 0 -320z m920 105 l0 -215 -145 0 -145 0 0 215 0 215 145 0 145 0 0
-215z m440 0 l0 -215 -140 0 -140 0 0 215 0 215 140 0 140 0 0 -215z m-1910
-40 l0 -55 -270 0 -270 0 0 55 0 55 270 0 270 0 0 -55z m0 -295 l0 -90 -270 0
-270 0 0 90 0 90 270 0 270 0 0 -90z m1470 -280 l0 -251 -142 3 -143 3 -3 235
c-1 129 0 240 2 247 4 10 41 13 146 13 l140 0 0 -250z m440 0 l0 -250 -140 0
-140 0 0 250 0 250 140 0 140 0 0 -250z m1638 164 l3 -72 -80 -3 c-95 -5 -121
-22 -121 -79 0 -52 19 -64 114 -70 l81 -5 3 -72 3 -73 -536 0 -535 0 0 75 0
75 308 0 c349 0 352 1 352 69 0 26 -7 44 -21 57 -20 18 -43 19 -330 22 l-309
3 0 74 0 75 533 -2 532 -3 3 -71z m-3548 -269 l0 -145 -270 0 -270 0 0 145 0
145 270 0 270 0 0 -145z m550 0 l0 -145 -200 0 -200 0 0 145 0 145 200 0 200
0 0 -145z m480 0 l0 -145 -165 0 -165 0 0 145 0 145 165 0 165 0 0 -145z
m2518 -332 l3 -73 -536 0 -535 0 0 75 0 75 533 -2 532 -3 3 -72z m-3548 -18
l0 -55 -270 0 -270 0 0 55 0 55 270 0 270 0 0 -55z m550 0 l0 -55 -200 0 -200
0 0 55 0 55 200 0 200 0 0 -55z m480 0 l0 -55 -165 0 -165 0 0 55 0 55 165 0
165 0 0 -55z m440 0 l0 -55 -145 0 -145 0 0 55 0 55 145 0 145 0 0 -55z m440
0 l0 -55 -140 0 -140 0 0 55 0 55 140 0 140 0 0 -55z"/>
<path d="M1830 4672 l-30 -30 0 -285 c0 -272 1 -285 21 -311 26 -33 79 -36
109 -6 19 19 20 33 20 314 0 323 -1 327 -62 342 -22 5 -33 0 -58 -24z"/>
<path d="M402 2490 c-64 -40 -62 -1 -62 -960 l0 -870 -115 0 c-134 0 -175 -12
-205 -62 -18 -30 -20 -50 -20 -216 0 -201 7 -234 56 -267 29 -20 65 -20 2504
-20 2439 0 2475 0 2504 20 49 33 56 66 56 267 0 166 -2 186 -20 216 -30 50
-71 62 -205 62 l-115 0 0 186 0 186 -30 30 c-25 24 -36 29 -58 24 -45 -11 -62
-41 -62 -107 l0 -59 -145 0 -145 0 0 250 0 251 143 -3 142 -3 6 -49 c3 -31 12
-53 24 -62 28 -21 79 -17 101 7 18 20 19 43 22 368 2 227 -1 359 -8 383 -6 20
-24 48 -41 62 l-31 26 -399 0 -399 0 0 125 c0 144 -11 184 -62 215 -30 18 -50
20 -251 20 -311 0 -309 1 -317 -215 l-5 -140 -197 -3 -198 -2 0 125 c0 144
-11 184 -62 215 -32 20 -46 20 -370 18 l-338 -3 -32 -33 -33 -32 -5 -143 -5
-142 -522 -3 -521 -2 -4 137 c-5 221 -9 223 -325 223 -201 0 -221 -2 -251 -20z
m428 -630 l0 -500 -170 0 -170 0 0 500 0 500 170 0 170 0 0 -500z m1888 298
l-3 -203 -267 -3 -268 -2 0 205 0 205 270 0 270 0 -2 -202z m1032 -298 l0
-500 -165 0 -165 0 0 500 0 500 165 0 165 0 0 -500z m-2550 -75 l0 -215 -110
0 -110 0 0 215 0 215 110 0 110 0 0 -215z m390 0 l0 -215 -120 0 -120 0 0 215
0 215 120 0 120 0 0 -215z m410 0 l0 -215 -130 0 -130 0 0 215 0 215 130 0
130 0 0 -215z m1270 -105 l0 -320 -200 0 -200 0 0 320 0 320 200 0 200 0 0
-320z m920 105 l0 -215 -145 0 -145 0 0 215 0 215 145 0 145 0 0 -215z m440 0
l0 -215 -145 0 -145 0 0 215 0 215 145 0 145 0 0 -215z m-1912 -37 l-3 -53
-267 -3 -268 -2 0 55 0 55 271 0 270 0 -3 -52z m2 -298 l0 -90 -270 0 -270 0
0 90 0 90 270 0 270 0 0 -90z m-1520 -280 l0 -250 -110 0 -110 0 0 250 0 250
110 0 110 0 0 -250z m390 0 l0 -250 -120 0 -120 0 0 250 0 250 120 0 120 0 0
-250z m410 0 l0 -250 -130 0 -130 0 0 250 0 250 130 0 130 0 0 -250z m2190 0
l0 -250 -145 0 -145 0 0 250 0 250 145 0 145 0 0 -250z m-3362 -102 l-3 -143
-167 -3 -168 -2 0 145 0 145 170 0 171 0 -3 -142z m1892 -3 l0 -145 -270 0
-270 0 0 145 0 145 270 0 270 0 0 -145z m548 3 l-3 -143 -197 -3 -198 -2 0
145 0 145 200 0 201 0 -3 -142z m482 -3 l0 -145 -165 0 -165 0 0 145 0 145
165 0 165 0 0 -145z m-2920 -350 l0 -55 -170 0 -170 0 0 55 0 55 170 0 170 0
0 -55z m370 0 l0 -55 -110 0 -110 0 0 55 0 55 110 0 110 0 0 -55z m390 0 l0
-55 -120 0 -120 0 0 55 0 55 120 0 120 0 0 -55z m410 0 l0 -55 -130 0 -130 0
0 55 0 55 130 0 130 0 0 -55z m720 0 l0 -55 -270 0 -270 0 0 55 0 55 270 0
270 0 0 -55z m550 0 l0 -55 -200 0 -200 0 0 55 0 55 200 0 200 0 0 -55z m480
0 l0 -55 -165 0 -165 0 0 55 0 55 165 0 165 0 0 -55z m440 0 l0 -55 -145 0
-145 0 0 55 0 55 145 0 145 0 0 -55z m440 0 l0 -55 -145 0 -145 0 0 55 0 55
145 0 145 0 0 -55z m340 -340 l0 -135 -2410 0 -2410 0 0 135 0 135 2410 0
2410 0 0 -135z"/>
<path d="M630 2167 c-48 -24 -51 -41 -48 -345 l3 -284 24 -19 c30 -25 76 -24
101 1 19 19 20 33 20 318 0 272 -2 300 -17 314 -27 24 -55 29 -83 15z"/>
<path d="M3553 2170 c-12 -5 -26 -18 -32 -29 -7 -13 -11 -124 -11 -310 0 -278
1 -292 20 -311 25 -25 71 -26 101 -1 l24 19 3 291 3 292 -30 29 c-31 32 -42
34 -78 20z"/>
</g>
</svg>
