<?xml version="1.0" encoding="UTF-8"?>
<svg version="1.1" xmlns="http://www.w3.org/2000/svg" width="512" height="512">
<path d="M0 0 C7.33216041 5.51478732 10.36960216 13.98852444 12.078125 22.75 C12.25417276 25.48483518 12.34952364 28.11329112 12.33260059 30.84358788 C12.33580707 31.62140944 12.33901355 32.399231 12.34231719 33.20062292 C12.35059716 35.79856871 12.34469996 38.39628275 12.33882141 40.99423218 C12.341843 42.879045 12.34573253 44.76385659 12.35041398 46.64866602 C12.36070164 51.82182547 12.35851018 56.99491566 12.35423338 62.16808081 C12.35176757 67.74964999 12.36077852 73.33120244 12.36827087 78.9127655 C12.38102383 89.84519267 12.38281082 100.77759528 12.38047061 111.71002863 C12.37868799 120.59562515 12.3804359 129.48121422 12.38469505 138.36680984 C12.38529024 139.63117878 12.38588543 140.89554772 12.38649866 142.19823087 C12.3877104 144.76675029 12.38892453 147.3352697 12.39014103 149.90378912 C12.39792875 167.15090426 12.40184702 184.39801581 12.39782429 201.64513206 C12.39766791 202.31941889 12.39751154 202.99370572 12.39735042 203.68842548 C12.39654465 207.10588227 12.39569888 210.52333905 12.39483712 213.94079582 C12.39458049 214.95884993 12.39458049 214.95884993 12.39431867 215.99747078 C12.39397202 217.36997201 12.39362349 218.74247323 12.39327308 220.11497446 C12.38791586 241.47119722 12.39584691 262.82737869 12.41430664 284.18359375 C12.43502817 308.18454059 12.44571799 332.18545836 12.44173115 356.18641722 C12.4398179 368.89185453 12.44231882 381.59725423 12.45644569 394.30268478 C12.46835004 405.1187053 12.46977497 415.93466505 12.45765553 426.75068639 C12.45176028 432.26884645 12.45068535 437.78689529 12.46265793 443.30504799 C12.47349421 448.35821156 12.47044012 453.41117075 12.45639624 458.46432467 C12.45374312 460.29063082 12.45613514 462.11695286 12.46413211 463.94324343 C12.5174199 477.0223603 11.90727045 488.37327399 3.078125 498.75 C-4.08243324 505.42461217 -11.40295251 507.58728865 -21.15869141 507.33935547 C-26.63808945 506.86218944 -31.39898773 505.00185733 -36.484375 502.99609375 C-38.02766983 502.40201218 -38.02766983 502.40201218 -39.60214233 501.79592896 C-43.0481663 500.46240082 -46.48566456 499.108606 -49.921875 497.75 C-51.14722961 497.26723602 -52.37258423 496.78447205 -53.6350708 496.28707886 C-61.58803421 493.15026314 -69.52399941 489.97215991 -77.45263672 486.77441406 C-80.88739837 485.38935998 -84.32536208 484.01244457 -87.76413918 482.63739586 C-90.47535783 481.55177127 -93.18437047 480.46072262 -95.89283371 479.36824417 C-97.7599322 478.61653775 -99.62914588 477.87009155 -101.4984436 477.12387085 C-133.24881144 464.26439302 -133.24881144 464.26439302 -139.203125 450.8671875 C-141.04001795 445.45633979 -142.17203677 440.68582722 -142.17635059 434.95076275 C-142.17955707 434.30072306 -142.18276355 433.65068336 -142.18606719 432.9809455 C-142.19434156 430.81164325 -142.18845205 428.64261894 -142.18257141 426.47331238 C-142.18559327 424.89872234 -142.18948293 423.32413376 -142.19416398 421.74954778 C-142.20444835 417.42924282 -142.20226103 413.10902082 -142.19798338 408.78870904 C-142.19551694 404.12669312 -142.20452935 399.4646972 -142.21202087 394.8026886 C-142.22477247 385.6715411 -142.22656096 376.54042301 -142.22422061 367.4092681 C-142.2224377 359.98674804 -142.22418653 352.56423691 -142.22844505 345.14171791 C-142.22904024 344.08536558 -142.22963543 343.02901324 -142.23024866 341.94065023 C-142.23146041 339.79466428 -142.23267454 337.64867833 -142.23389103 335.50269238 C-142.24476849 315.37556083 -142.24260319 295.24844604 -142.23650619 275.12131355 C-142.23133767 256.71182575 -142.2425904 238.30239087 -142.26160441 219.89291354 C-142.28098081 200.98753117 -142.2892391 182.08217384 -142.28548115 163.17678148 C-142.28356871 152.56389869 -142.28606088 141.95106095 -142.30019569 131.33818626 C-142.31210798 122.30262064 -142.31351612 113.26712777 -142.30140553 104.23156115 C-142.29551561 99.6227449 -142.29442055 95.01406175 -142.30640793 90.40525436 C-142.31726244 86.18287687 -142.31416851 81.96074366 -142.30014624 77.73837761 C-142.29749812 76.21419302 -142.29986951 74.68998931 -142.30788211 73.16582348 C-142.36761355 60.95194153 -141.40814661 51.05375649 -132.921875 41.75 C-132.38046875 41.15445313 -131.8390625 40.55890625 -131.28125 39.9453125 C-120.98191264 29.86987378 -104.2893903 25.35068298 -91.09765625 20.1015625 C-89.33493646 19.39681776 -87.57234012 18.69176416 -85.80986023 17.98641968 C-82.15108632 16.52323778 -78.49117199 15.06296071 -74.83032227 13.60498047 C-70.1400661 11.73688063 -65.45231855 9.86257827 -60.76533222 7.98629189 C-57.14165361 6.53620735 -53.51693475 5.08873895 -49.89186668 3.64213181 C-48.16163809 2.95144413 -46.4316766 2.26008695 -44.70199013 1.56804276 C-42.29623974 0.60610174 -39.8891692 -0.35245541 -37.48168945 -1.31005859 C-36.77157715 -1.59468964 -36.06146484 -1.87932068 -35.32983398 -2.1725769 C-23.23147141 -6.9701187 -11.06678513 -7.19790903 0 0 Z M-31.06518555 15.57641602 C-31.82429733 15.87728622 -32.58340912 16.17815643 -33.36552429 16.48814392 C-35.85282873 17.47846889 -38.33054623 18.49066514 -40.80859375 19.50390625 C-42.55533544 20.20577085 -44.30256251 20.90642857 -46.05024719 21.60594177 C-49.70789456 23.07361018 -53.36122283 24.55138897 -57.01147461 26.03735352 C-61.65057755 27.92564889 -66.29686946 29.79536102 -70.94623089 31.6582346 C-74.5560628 33.1056885 -78.16320507 34.55974367 -81.76947975 36.01603508 C-83.47951962 36.70644364 -85.19003569 37.39567409 -86.90106773 38.08362007 C-107.23021841 45.19760793 -107.23021841 45.19760793 -122.921875 58.75 C-124.02636543 62.06347128 -124.04949878 64.51492088 -124.05330276 68.0057497 C-124.05906448 69.98424442 -124.05906448 69.98424442 -124.0649426 72.00270873 C-124.0641623 73.47538274 -124.06328351 74.9480567 -124.06231689 76.42073059 C-124.06489967 77.97821889 -124.06791258 79.53570652 -124.0713203 81.09319323 C-124.07940379 85.38462972 -124.08118062 89.6760495 -124.08191776 93.9674927 C-124.08376596 98.59132438 -124.09131209 103.21514734 -124.09805298 107.838974 C-124.11164617 117.9545779 -124.11766249 128.07017784 -124.12206364 138.18578935 C-124.12482426 144.49912682 -124.12906127 150.81246275 -124.13356781 157.12579918 C-124.14576151 174.59745214 -124.15606079 192.06910387 -124.1594429 209.54076099 C-124.15966247 210.65940331 -124.15988203 211.77804563 -124.16010825 212.9305862 C-124.16032653 214.05193948 -124.16054481 215.17329277 -124.1607697 216.32862645 C-124.16121317 218.60100162 -124.16165973 220.87337679 -124.16210938 223.14575195 C-124.1623308 224.27293397 -124.16255223 225.40011599 -124.16278037 226.56145503 C-124.16672958 244.8316331 -124.18418688 263.10177131 -124.2074689 281.37193397 C-124.23116625 300.11896524 -124.24364401 318.86597649 -124.24481082 337.61302298 C-124.24572846 348.14312293 -124.25150328 358.67317094 -124.26963043 369.20325661 C-124.28500958 378.16876097 -124.29016481 387.13419736 -124.28189233 396.09971241 C-124.27797813 400.67560491 -124.27895287 405.25136042 -124.29294968 409.82723618 C-124.30564246 414.01501784 -124.30453197 418.20255894 -124.29235896 422.39034005 C-124.29039392 423.90650012 -124.29351748 425.42267696 -124.30220333 426.93881343 C-124.31325695 428.99841086 -124.30583596 431.0571534 -124.2938118 433.11672688 C-124.29440889 434.26109661 -124.29500597 435.40546635 -124.29562116 436.58451396 C-123.57665011 442.67392193 -120.70328401 446.59447952 -116.07077026 450.31503296 C-111.87177565 453.11899413 -107.25208052 454.89831525 -102.58203125 456.76953125 C-101.45612076 457.23277298 -100.33021027 457.69601471 -99.17018127 458.17329407 C-96.71978244 459.17920944 -94.26793776 460.17997116 -91.81231689 461.1729126 C-87.81930137 462.78841755 -83.83695854 464.42929674 -79.85498047 466.07177734 C-73.52343932 468.67989908 -67.18123837 471.26066512 -60.8306942 473.82215691 C-57.19789915 475.28768342 -53.56792104 476.75946546 -49.94360352 478.24584961 C-46.35297106 479.71828753 -42.75643067 481.17527896 -39.15519905 482.62159157 C-37.8067736 483.1660503 -36.46045341 483.71575742 -35.11648369 484.27112389 C-27.83973142 487.27333254 -21.84228674 489.63752248 -13.921875 488.75 C-9.47027479 486.42742598 -8.20018397 483.57485975 -6.54019324 478.93676448 C-5.58200523 475.54800548 -5.50941982 472.21965837 -5.54435158 468.72891235 C-5.53999126 467.95893347 -5.53563093 467.18895458 -5.53113848 466.395643 C-5.52021969 463.82429008 -5.53058828 461.2534776 -5.54092407 458.68212891 C-5.53746618 456.81651346 -5.53270073 454.95090005 -5.52674234 453.08529091 C-5.51422087 447.96524356 -5.52040801 442.845364 -5.52970099 437.72531605 C-5.53648641 432.20104143 -5.52601277 426.67679574 -5.51776123 421.15252686 C-5.50441631 410.33305315 -5.50730504 399.51364186 -5.51599915 388.69416571 C-5.52277229 379.90151297 -5.52369402 371.10887774 -5.5204277 362.31622314 C-5.51973816 360.43961878 -5.51973816 360.43961878 -5.51903468 358.52510321 C-5.51807551 355.98363733 -5.51710287 353.44217145 -5.5161169 350.90070558 C-5.50780473 327.74487347 -5.51642707 304.58907399 -5.53214469 281.43324938 C-5.54638132 260.29858031 -5.54510743 239.16396547 -5.53076172 218.02929688 C-5.51469485 194.27960514 -5.50838478 170.52993966 -5.51759851 146.78024101 C-5.51855416 144.2480863 -5.51949728 141.71593158 -5.5204277 139.18377686 C-5.52089053 137.93788461 -5.52135336 136.69199237 -5.52183021 135.40834582 C-5.52442127 126.62551497 -5.52004659 117.84270336 -5.51298904 109.05987549 C-5.50457822 98.3576124 -5.50684544 87.65541533 -5.52283128 76.95315981 C-5.53071956 71.49195757 -5.53379601 66.03086544 -5.52388382 60.569664 C-5.51494809 55.57087835 -5.5198514 50.57230492 -5.53581648 45.57353854 C-5.53916901 43.76476652 -5.5374596 41.9559766 -5.53018911 40.14721608 C-5.52106288 37.68825189 -5.5304269 35.23001404 -5.54435158 32.77108765 C-5.53732808 32.0692264 -5.53030458 31.36736515 -5.52306825 30.64423537 C-5.5929284 24.46952756 -6.99267413 19.01964808 -11.046875 14.25 C-17.64883446 10.80549941 -24.5429382 12.86650618 -31.06518555 15.57641602 Z " fill="#6a5f5f" transform="translate(141.921875,5.25)"/>
<path d="M0 0 C2.61393969 0.70879152 3.87989681 1.7787584 5.86982822 3.60669231 C6.56599813 4.24364717 7.26216805 4.88060204 7.97943401 5.53685856 C11.51956221 8.90207895 15.00361524 12.31605174 18.45257664 15.77461529 C19.24217777 16.5624641 20.03177891 17.35031292 20.84530735 18.16203594 C23.42922274 20.7415842 26.00950382 23.32473197 28.58953953 25.90816021 C30.39160391 27.70955048 32.19381668 29.51079233 33.996171 31.31189251 C37.75914581 35.07339766 41.52036523 38.83664589 45.28021336 42.60127544 C49.6273569 46.95388338 53.97812314 51.30284525 58.33074182 55.64997751 C62.52762628 59.84178384 66.72170402 64.03638961 70.91458416 68.23220158 C72.69651472 70.01480047 74.47919185 71.79665338 76.26261806 73.57775593 C78.74502615 76.05763684 81.22422728 78.54067907 83.70257664 81.02461529 C84.44382282 81.76383724 85.18506901 82.5030592 85.9487772 83.26468182 C86.62013706 83.9388615 87.29149693 84.61304119 87.98320103 85.30765057 C88.86221529 86.18723037 88.86221529 86.18723037 89.75898743 87.08457947 C92.32772963 89.89001456 92.64631677 92.61221387 92.59504414 96.38021183 C92.00919124 99.11538542 90.99063299 100.28959664 89.09912205 102.33580303 C88.46052502 103.03079529 87.82192799 103.72578754 87.16397953 104.44184017 C83.82674469 107.93454828 80.45458784 111.38527291 77.03387547 114.7963438 C75.86914204 115.96370571 75.86914204 115.96370571 74.68087864 117.15465069 C72.13860227 119.70129388 69.59272689 122.24430273 67.04657078 124.78706646 C65.26999642 126.564315 63.49357048 128.34171192 61.71728611 130.1192503 C58.0070562 133.83094987 54.29508173 137.54089582 50.58172703 141.2494688 C46.29162487 145.53411026 42.00516394 149.82236922 37.72053695 154.11248529 C33.58640135 158.25170424 29.44946088 162.38810931 25.3113184 166.52332211 C23.55466615 168.27930671 21.79875797 170.03603599 20.04360294 171.79351711 C17.59745584 174.24219624 15.14813925 176.68765981 12.69793797 179.1322813 C11.97166203 179.86058147 11.24538609 180.58888165 10.49710178 181.33925152 C9.82996159 182.00357189 9.16282139 182.66789227 8.47546482 183.35234356 C7.60832922 184.21891362 7.60832922 184.21891362 6.72367573 185.10299015 C3.2548087 188.29885427 0.76800307 189.03177919 -3.93780422 188.88472271 C-5.87530422 188.57612896 -5.87530422 188.57612896 -8.31280422 187.01362896 C-10.39389326 183.76713007 -10.80780379 181.42365357 -10.87530422 177.57612896 C-8.62353078 172.80747563 -4.99241183 169.42362358 -1.29254055 165.76631451 C-0.62885967 165.10234158 0.03482121 164.43836864 0.71861362 163.75427532 C2.90525496 161.56902313 5.09888666 159.39093345 7.29266453 157.21284771 C8.81338972 155.69585412 10.33367285 154.17841727 11.85353184 152.66055584 C15.84891807 148.67279448 19.8502747 144.69107664 23.85290623 140.71058941 C27.93866355 136.64531512 32.01874327 132.57435139 36.09930515 128.50386333 C44.10222354 120.52237465 52.11146109 112.54725933 60.12469578 104.57612896 C59.52142706 104.57515215 58.91815834 104.57417534 58.29660875 104.57316893 C22.5563233 104.51491976 -13.18389713 104.44114035 -48.92410688 104.34714268 C-53.21374724 104.33587427 -57.50338792 104.32473586 -61.79302883 104.31367779 C-63.07403524 104.31037226 -63.07403524 104.31037226 -64.38092057 104.30699996 C-78.21589987 104.27161014 -92.05087912 104.24675552 -105.88588693 104.22578194 C-120.0777731 104.2040333 -134.26960043 104.17099181 -148.46143657 104.1274274 C-157.22130875 104.10089451 -165.98110759 104.08321121 -174.74101797 104.07678292 C-180.74484512 104.07153403 -186.74857993 104.05533392 -192.75235762 104.0304633 C-196.21825315 104.01643108 -199.68398331 104.00728386 -203.14990902 104.0111208 C-206.90558965 104.01276426 -210.66075539 103.99615272 -214.41636562 103.97485638 C-215.51461263 103.97970395 -216.61285963 103.98455153 -217.74438685 103.989546 C-227.03550334 103.90222612 -227.03550334 103.90222612 -230.87530422 100.57612896 C-232.60525902 97.66665953 -232.88193761 95.90116476 -232.81280422 92.51362896 C-231.55295966 88.56611599 -230.47112475 87.67998492 -226.87530422 85.57612896 C-223.04622123 84.97431241 -219.24783933 85.02990139 -215.37840176 85.05714703 C-214.2021501 85.04964577 -213.02589845 85.04214452 -211.81400281 85.03441596 C-208.55286307 85.01762811 -205.29229174 85.01870996 -202.03113806 85.02732348 C-198.51307906 85.03226612 -194.99512962 85.01418621 -191.47711086 84.99890423 C-185.3831898 84.97558291 -179.28938776 84.96684408 -173.19542408 84.96801281 C-164.38460825 84.9696815 -155.57395117 84.94935297 -146.76317767 84.92365751 C-132.46828553 84.88256562 -118.17342193 84.85926084 -103.87847805 84.84712505 C-89.99238243 84.83529831 -76.10634055 84.81510496 -62.22027493 84.78364849 C-61.36432081 84.78171239 -60.5083667 84.77977629 -59.62647458 84.77778152 C-55.33239898 84.768017 -51.03832378 84.75808788 -46.74424875 84.74807692 C-11.12129164 84.66524053 24.5016609 84.61126381 60.12469578 84.57612896 C58.83470173 83.29279675 58.83470173 83.29279675 57.51864719 81.98353863 C49.42016171 73.92557205 41.32694372 65.86234827 33.23887157 57.7939291 C29.08040942 53.64591031 24.9201047 49.49977505 20.75555515 45.35786724 C16.73766269 41.36168318 12.72465558 37.36065322 8.71500874 33.3561964 C7.18332879 31.82821579 5.64988775 30.30199847 4.11467457 28.77756786 C1.96702393 26.64440526 -0.17431631 24.5050959 -2.31426907 22.3642149 C-2.95227947 21.73339504 -3.59028988 21.10257519 -4.24763393 20.45263958 C-5.12262287 19.57352665 -5.12262287 19.57352665 -6.01528835 18.67665386 C-6.52227449 18.17151131 -7.02926064 17.66636875 -7.55160999 17.14591885 C-10.15548994 14.0579365 -10.89606395 12.15740143 -10.75030422 8.07612896 C-9.2275267 1.98501888 -6.50398857 -0.34082461 0 0 Z " fill="#6a5f5f" transform="translate(419.87530422210693,161.42387104034424)"/>
<path d="M0 0 C1.11709854 -0.0112793 2.23419708 -0.02255859 3.38514709 -0.03417969 C4.60648346 -0.02608276 5.82781982 -0.01798584 7.08616638 -0.00964355 C8.37605972 -0.01665283 9.66595306 -0.02366211 10.99493408 -0.03088379 C14.53266586 -0.04912274 18.06993106 -0.0420443 21.60767102 -0.02936745 C25.31812102 -0.0192275 29.02853155 -0.02863727 32.73898315 -0.03491211 C38.97750493 -0.04219201 45.21583742 -0.03259861 51.45433044 -0.0135498 C58.64456571 0.00815303 65.83434609 0.00121737 73.02457005 -0.02085543 C79.21079799 -0.03907979 85.39688987 -0.04153159 91.58313602 -0.03110075 C95.27177324 -0.02489564 98.96019772 -0.02394578 102.64882088 -0.0372467 C106.77273509 -0.05107706 110.8958824 -0.0318416 115.01976013 -0.00964355 C116.22692688 -0.01774048 117.43409363 -0.0258374 118.67784119 -0.03417969 C132.11040164 0.09909342 142.87594905 4.76512351 152.35350037 14.38293457 C161.63881298 25.78178381 162.65410461 38.47582108 162.66697693 52.52404785 C162.67194183 53.82401703 162.67690674 55.12398621 162.68202209 56.46334839 C162.69507259 60.0127427 162.70157546 63.56211817 162.70603275 67.11153269 C162.70897269 69.33094819 162.71307899 71.55035864 162.71753693 73.76977158 C162.73118648 80.72000227 162.74086807 87.67022129 162.74473882 94.62046444 C162.74922697 102.63365007 162.76682043 110.64666575 162.79573941 118.6597997 C162.81735063 124.86379282 162.82744264 131.06773808 162.82877994 137.27176845 C162.82982748 140.9735748 162.8357255 144.67522084 162.85359955 148.37698746 C162.87313201 152.50163384 162.86879358 156.62592287 162.86228943 160.75061035 C162.87150421 161.97463562 162.88071899 163.19866089 162.89021301 164.45977783 C162.88185928 166.1461586 162.88185928 166.1461586 162.87333679 167.86660767 C162.87480335 168.84106905 162.87626991 169.81553043 162.87778091 170.81952095 C162.43411777 174.02638312 161.3981604 175.90167547 159.50584412 178.50793457 C156.57397399 180.2512087 154.85678696 180.52225877 151.44334412 180.38293457 C147.97970785 179.35121313 146.75970388 178.30383176 144.50584412 175.50793457 C144.00641537 172.93253803 144.00641537 172.93253803 144.00704956 169.96235657 C143.99747223 168.83395355 143.9878949 167.70555054 143.97802734 166.54295349 C143.98777084 165.3091243 143.99751434 164.0752951 144.0075531 162.80407715 C143.9992749 160.8497879 143.9992749 160.8497879 143.99082947 158.85601807 C143.97887965 156.02344137 143.97936759 153.19123536 143.98942375 150.35865211 C144.00499807 145.8736656 143.99129548 141.3890588 143.97338867 136.90409851 C143.94256181 128.18564511 143.9410666 119.46730764 143.94303894 110.74880981 C143.94443127 99.6696541 143.93397103 88.59058862 143.89446121 77.51149863 C143.87958037 73.0598133 143.87975891 68.60846527 143.89193904 64.15677512 C143.89552946 62.04892598 143.89231728 59.94121556 143.88615417 57.83337402 C143.87880015 55.27244295 143.88197798 52.71144915 143.89813232 50.15055847 C143.84356915 40.92547963 142.61147094 32.76867998 136.50584412 25.50793457 C131.30332369 21.62184138 126.89810468 19.38790172 120.32608032 19.36990356 C119.25361557 19.36445023 118.18115082 19.35899689 117.07618713 19.3533783 C115.31116348 19.3518148 115.31116348 19.3518148 113.51048279 19.35021973 C112.27122543 19.34513901 111.03196808 19.34005829 109.75515747 19.33482361 C107.0590796 19.32410919 104.36305338 19.31511142 101.66696739 19.30870438 C97.4014106 19.29801721 93.13593292 19.27777014 88.87042236 19.25558472 C76.74071378 19.19368557 64.61100981 19.13966405 52.48118591 19.10656738 C45.78224139 19.08820889 39.08342941 19.05925783 32.38458234 19.01856267 C28.84089014 18.99751356 25.29736481 18.9820384 21.7536068 18.9797554 C17.79872874 18.97720453 13.84417767 18.95172083 9.88938904 18.92443848 C8.7187793 18.92744461 7.54816956 18.93045074 6.34208679 18.93354797 C0.68560213 18.87549829 -3.66012383 18.81292406 -8.49415588 15.50793457 C-10.66637967 12.86348822 -10.49308909 11.47806439 -10.36915588 8.00793457 C-8.87063539 2.01385258 -6.0788061 0.00944916 0 0 Z " fill="#6a5f5f" transform="translate(179.49415588378906,33.4920654296875)"/>
<path d="M0 0 C2.64365079 1.87613927 2.95241281 2.85723843 4 6 C4.0946865 7.79159686 4.13062083 9.58653593 4.13371277 11.38063049 C4.14011024 13.05638405 4.14011024 13.05638405 4.14663696 14.76599121 C4.14618378 15.9924939 4.14573059 17.21899658 4.14526367 18.48266602 C4.14862228 19.77401962 4.1519809 21.06537323 4.15544128 22.39585876 C4.16428396 25.94169874 4.16661964 29.4875146 4.16725707 33.03336453 C4.16796797 35.25145738 4.17010314 37.4695441 4.17275429 39.68763542 C4.1820119 47.43442041 4.18608907 55.18118818 4.18530273 62.92797852 C4.18470334 70.13342583 4.19522683 77.33879793 4.2110464 84.54422623 C4.22416068 90.7397244 4.22948493 96.93519813 4.22884732 103.13071007 C4.22859327 106.82654742 4.23139221 110.5223181 4.24202538 114.21814156 C4.25358551 118.3493365 4.24893583 122.4803655 4.24291992 126.61157227 C4.24853943 127.82390533 4.25415894 129.0362384 4.25994873 130.28530884 C4.20723311 144.57377239 1.3900883 156.59707511 -8.5625 167.375 C-16.17370719 174.54732119 -25.97273143 179.10068217 -36.46533203 179.14717102 C-38.13091156 179.15790398 -38.13091156 179.15790398 -39.83013916 179.16885376 C-41.65058746 179.17288712 -41.65058746 179.17288712 -43.5078125 179.17700195 C-44.78944275 179.18357315 -46.071073 179.19014435 -47.39154053 179.19691467 C-51.63601439 179.21790384 -55.88048843 179.2283081 -60.125 179.23828125 C-61.58726012 179.24232989 -63.04952005 179.24644684 -64.51177979 179.25063133 C-71.37818746 179.26966694 -78.24458445 179.28390477 -85.11101341 179.2922433 C-93.03712996 179.3020282 -100.96296817 179.32838685 -108.88898659 179.36874419 C-115.01731925 179.39887844 -121.14557195 179.41370936 -127.27397728 179.41702431 C-130.93393698 179.41937671 -134.59359876 179.42836216 -138.253479 179.45348549 C-142.33322795 179.48104136 -146.41235151 179.47694344 -150.4921875 179.4699707 C-151.7058197 179.48278076 -152.9194519 179.49559082 -154.16986084 179.50878906 C-155.83544037 179.49837334 -155.83544037 179.49837334 -157.53466797 179.48774719 C-158.49919891 179.49013555 -159.46372986 179.4925239 -160.45748901 179.49498463 C-163.77024763 178.85004559 -164.93755307 177.62381951 -167 175 C-168.05590483 171.12834896 -168.37482524 168.9370631 -166.875 165.1875 C-164.20499159 162.07249018 -161.49931916 161.14685517 -157.44211197 160.74946022 C-156.52924297 160.74912474 -155.61637398 160.74878925 -154.67584229 160.7484436 C-153.62179199 160.74306076 -152.5677417 160.73767792 -151.48175049 160.73213196 C-150.33567322 160.73625595 -149.18959595 160.74037994 -148.00878906 160.74462891 C-146.18595398 160.73919823 -146.18595398 160.73919823 -144.32629395 160.73365784 C-141.68802202 160.72676579 -139.05000555 160.72337329 -136.41175079 160.72560501 C-132.23339461 160.72844591 -128.05520647 160.71405614 -123.87689209 160.69662476 C-111.99705533 160.64967536 -100.11723013 160.62566883 -88.23730469 160.61914062 C-81.67197814 160.61538066 -75.10684205 160.5972759 -68.54159713 160.56404626 C-64.39511237 160.54391389 -60.24912158 160.54142162 -56.1026082 160.55232644 C-52.90459321 160.55556421 -49.70673991 160.53280284 -46.50878906 160.51416016 C-45.37080872 160.52233261 -44.23282837 160.53050507 -43.06036377 160.53892517 C-36.11682413 160.46708345 -31.08442031 159.33517738 -25 156 C-24.29940586 155.70933466 -23.59881172 155.41866932 -22.87698746 155.11919594 C-20.50186419 153.70297533 -20.0268917 152.54248315 -19 150 C-18.65202551 149.23437178 -18.30405102 148.46874355 -17.94553185 147.67991447 C-14.90398636 140.14497682 -14.45333025 133.50473739 -14.54931641 125.43798828 C-14.54824211 123.42682223 -14.54716297 121.41565617 -14.54590011 119.40449023 C-14.54828558 117.26567385 -14.56040872 115.12711012 -14.57527542 112.9883461 C-14.60538463 108.51653283 -14.60255422 104.04509744 -14.59457397 99.57321167 C-14.57954011 88.47642007 -14.60130732 77.37974163 -14.64239502 66.28302002 C-14.67434198 57.63605662 -14.69361159 48.98953369 -14.67088258 40.34251773 C-14.66063805 35.89856078 -14.67792079 31.45583511 -14.71602273 27.01204228 C-14.73767315 23.60313107 -14.72049993 20.19460253 -14.70947266 16.78564453 C-14.72797775 15.5585527 -14.74648285 14.33146088 -14.76554871 13.06718445 C-14.68757691 4.99243138 -14.68757691 4.99243138 -12.69518661 2.11666489 C-8.13903906 -1.84781554 -5.48685942 -1.43917624 0 0 Z " fill="#6a5f5f" transform="translate(338,299)"/>
<path d="M0 0 C2.70435257 3.57384412 3.37725258 6.19266698 3.38818359 10.62890625 C3.39764008 11.73355225 3.40709656 12.83819824 3.4168396 13.97631836 C3.41076691 15.1597583 3.40469421 16.34319824 3.3984375 17.5625 C3.40130768 18.78654541 3.40417786 20.01059082 3.40713501 21.27172852 C3.40917466 23.85726383 3.40365179 26.4428146 3.39111328 29.02832031 C3.37505933 32.98537712 3.3909665 36.94141246 3.41015625 40.8984375 C3.4081738 43.41146059 3.4043301 45.92448304 3.3984375 48.4375 C3.40451019 49.62093994 3.41058289 50.80437988 3.4168396 52.02368164 C3.40738312 53.12832764 3.39792664 54.23297363 3.38818359 55.37109375 C3.38579681 56.33974365 3.38341003 57.30839355 3.38095093 58.30639648 C2.92411074 61.53659294 1.95169599 63.39976797 0 66 C-4.10460518 67.85868914 -6.03380718 68.34637101 -10.3125 66.8125 C-13 65 -13 65 -15 62 C-15.26742554 59.47097778 -15.26742554 59.47097778 -15.29052734 56.41455078 C-15.30328705 55.26971222 -15.31604675 54.12487366 -15.32919312 52.94534302 C-15.33141876 51.70783295 -15.33364441 50.47032288 -15.3359375 49.1953125 C-15.3425943 47.9240451 -15.3492511 46.65277771 -15.35610962 45.34298706 C-15.36624454 42.65120464 -15.37179056 39.95982598 -15.37060547 37.26806641 C-15.37040239 33.82570454 -15.39769118 30.38416934 -15.43214989 26.94200325 C-15.45979254 23.6514708 -15.45856888 20.3609453 -15.4609375 17.0703125 C-15.47530853 15.83685089 -15.48967957 14.60338928 -15.50448608 13.33255005 C-15.49833282 12.18140717 -15.49217957 11.03026428 -15.48583984 9.84423828 C-15.48868988 8.83402618 -15.49153992 7.82381409 -15.49447632 6.7829895 C-14.86748646 3.25419324 -13.44230537 1.5717687 -11 -1 C-7.22998402 -2.95000827 -3.75769066 -1.50307626 0 0 Z " fill="#6a5f5f" transform="translate(117,223)"/>
</svg>
