<?xml version="1.0" encoding="UTF-8"?>
<svg version="1.1" xmlns="http://www.w3.org/2000/svg" width="512" height="512">
<path d="M0 0 C1.21899461 -0.00507454 2.43798922 -0.01014909 3.69392306 -0.0153774 C5.05379391 -0.01597909 6.41366481 -0.01647817 7.77353573 -0.01688576 C9.2126793 -0.02090015 10.65182175 -0.02533833 12.09096283 -0.03016531 C16.05542867 -0.04213952 20.01988234 -0.04778124 23.98436272 -0.05234647 C28.25653294 -0.05829943 32.52868857 -0.06991011 36.80084896 -0.08063698 C47.12379501 -0.10516913 57.44674589 -0.1197899 67.76971212 -0.13269705 C70.68519404 -0.13640857 73.60067547 -0.14038184 76.51615691 -0.14444971 C94.61876053 -0.16968727 112.7213649 -0.19174162 130.82398224 -0.20417786 C135.01793642 -0.20710759 139.21189057 -0.21006924 143.40584469 -0.21308327 C144.96943803 -0.21420234 144.96943803 -0.21420234 146.56461912 -0.21534403 C163.44829137 -0.22799582 180.33185828 -0.26121591 197.21548129 -0.3028851 C214.54775546 -0.34531101 231.87997571 -0.36887371 249.21230167 -0.37409842 C258.9444504 -0.37751193 268.67643452 -0.38925998 278.40853214 -0.42220116 C286.69762721 -0.45021192 294.98652395 -0.46119652 303.27566267 -0.4500057 C307.50381225 -0.44482154 311.73154657 -0.44768972 315.95963573 -0.47247124 C319.83444147 -0.49499212 323.70853433 -0.49420243 327.5833528 -0.47526737 C328.98115358 -0.47247127 330.37900301 -0.47804429 331.77672572 -0.4930803 C340.34875819 -0.57961632 346.99986638 0.20511256 354.19270992 5.13701439 C356.44661617 7.48857689 356.44661617 7.48857689 357.75520992 9.76201439 C358.21024899 10.51740501 358.66528805 11.27279564 359.13411617 12.05107689 C362.49212554 18.66796619 362.31796645 27.01473318 360.39192867 34.07060814 C357.54960208 40.48781973 353.3926538 43.99060092 347.19270992 47.13701439 C344.00436166 48.19979714 341.73627435 48.26663788 338.38541985 48.27402878 C337.16642524 48.27910332 335.94743063 48.28417786 334.69149679 48.28940618 C333.33162594 48.29000787 331.97175504 48.29050695 330.61188412 48.29091454 C329.17274054 48.29492892 327.7335981 48.29936711 326.29445702 48.30419409 C322.32999118 48.3161683 318.36553751 48.32181001 314.40105712 48.32637525 C310.12888691 48.33232821 305.85673127 48.34393889 301.58457088 48.35466576 C291.26162484 48.37919791 280.93867396 48.39381868 270.61570773 48.40672582 C267.70022581 48.41043735 264.78474437 48.41441062 261.86926293 48.41847849 C243.76665931 48.44371604 225.66405494 48.4657704 207.56143761 48.47820663 C203.36748343 48.48113636 199.17352928 48.48409802 194.97957516 48.48711205 C193.9371796 48.4878581 192.89478403 48.48860415 191.82080073 48.4893728 C174.93712847 48.5020246 158.05356157 48.53524469 141.16993856 48.57691388 C123.83766439 48.61933979 106.50544414 48.64290249 89.17311817 48.6481272 C79.44096945 48.65154071 69.70898532 48.66328876 59.9768877 48.69622993 C51.68779263 48.72424069 43.3988959 48.7352253 35.10975718 48.72403447 C30.88160759 48.71885032 26.65387328 48.7217185 22.42578411 48.74650002 C18.55097837 48.7690209 14.67688552 48.76823121 10.80206705 48.74929614 C9.40426626 48.74650005 8.00641684 48.75207307 6.60869413 48.76710908 C-1.96333834 48.8536451 -8.61444653 48.06891622 -15.80729008 43.13701439 C-18.06119633 40.78545189 -18.06119633 40.78545189 -19.36979008 38.51201439 C-19.82482914 37.75662376 -20.2798682 37.00123314 -20.74869633 36.22295189 C-24.10670569 29.60606259 -23.9325466 21.2592956 -22.00650883 14.20342064 C-19.16418223 7.78620905 -15.00723395 4.28342786 -8.80729008 1.13701439 C-5.61894182 0.07423164 -3.3508545 0.0073909 0 0 Z " fill="#000000" transform="translate(86.80729007720947,343.8629856109619)"/>
<path d="M0 0 C1.21899461 -0.00507454 2.43798922 -0.01014909 3.69392306 -0.0153774 C5.05379391 -0.01597909 6.41366481 -0.01647817 7.77353573 -0.01688576 C9.2126793 -0.02090015 10.65182175 -0.02533833 12.09096283 -0.03016531 C16.05542867 -0.04213952 20.01988234 -0.04778124 23.98436272 -0.05234647 C28.25653294 -0.05829943 32.52868857 -0.06991011 36.80084896 -0.08063698 C47.12379501 -0.10516913 57.44674589 -0.1197899 67.76971212 -0.13269705 C70.68519404 -0.13640857 73.60067547 -0.14038184 76.51615691 -0.14444971 C94.61876053 -0.16968727 112.7213649 -0.19174162 130.82398224 -0.20417786 C135.01793642 -0.20710759 139.21189057 -0.21006924 143.40584469 -0.21308327 C144.96943803 -0.21420234 144.96943803 -0.21420234 146.56461912 -0.21534403 C163.44829137 -0.22799582 180.33185828 -0.26121591 197.21548129 -0.3028851 C214.54775546 -0.34531101 231.87997571 -0.36887371 249.21230167 -0.37409842 C258.9444504 -0.37751193 268.67643452 -0.38925998 278.40853214 -0.42220116 C286.69762721 -0.45021192 294.98652395 -0.46119652 303.27566267 -0.4500057 C307.50381225 -0.44482154 311.73154657 -0.44768972 315.95963573 -0.47247124 C319.83444147 -0.49499212 323.70853433 -0.49420243 327.5833528 -0.47526737 C328.98115358 -0.47247127 330.37900301 -0.47804429 331.77672572 -0.4930803 C340.34875819 -0.57961632 346.99986638 0.20511256 354.19270992 5.13701439 C356.44661617 7.48857689 356.44661617 7.48857689 357.75520992 9.76201439 C358.21024899 10.51740501 358.66528805 11.27279564 359.13411617 12.05107689 C362.49212554 18.66796619 362.31796645 27.01473318 360.39192867 34.07060814 C357.54960208 40.48781973 353.3926538 43.99060092 347.19270992 47.13701439 C344.00436166 48.19979714 341.73627435 48.26663788 338.38541985 48.27402878 C337.16642524 48.27910332 335.94743063 48.28417786 334.69149679 48.28940618 C333.33162594 48.29000787 331.97175504 48.29050695 330.61188412 48.29091454 C329.17274054 48.29492892 327.7335981 48.29936711 326.29445702 48.30419409 C322.32999118 48.3161683 318.36553751 48.32181001 314.40105712 48.32637525 C310.12888691 48.33232821 305.85673127 48.34393889 301.58457088 48.35466576 C291.26162484 48.37919791 280.93867396 48.39381868 270.61570773 48.40672582 C267.70022581 48.41043735 264.78474437 48.41441062 261.86926293 48.41847849 C243.76665931 48.44371604 225.66405494 48.4657704 207.56143761 48.47820663 C203.36748343 48.48113636 199.17352928 48.48409802 194.97957516 48.48711205 C193.9371796 48.4878581 192.89478403 48.48860415 191.82080073 48.4893728 C174.93712847 48.5020246 158.05356157 48.53524469 141.16993856 48.57691388 C123.83766439 48.61933979 106.50544414 48.64290249 89.17311817 48.6481272 C79.44096945 48.65154071 69.70898532 48.66328876 59.9768877 48.69622993 C51.68779263 48.72424069 43.3988959 48.7352253 35.10975718 48.72403447 C30.88160759 48.71885032 26.65387328 48.7217185 22.42578411 48.74650002 C18.55097837 48.7690209 14.67688552 48.76823121 10.80206705 48.74929614 C9.40426626 48.74650005 8.00641684 48.75207307 6.60869413 48.76710908 C-1.96333834 48.8536451 -8.61444653 48.06891622 -15.80729008 43.13701439 C-18.06119633 40.78545189 -18.06119633 40.78545189 -19.36979008 38.51201439 C-19.82482914 37.75662376 -20.2798682 37.00123314 -20.74869633 36.22295189 C-24.10670569 29.60606259 -23.9325466 21.2592956 -22.00650883 14.20342064 C-19.16418223 7.78620905 -15.00723395 4.28342786 -8.80729008 1.13701439 C-5.61894182 0.07423164 -3.3508545 0.0073909 0 0 Z " fill="#000000" transform="translate(86.80729007720947,231.8629856109619)"/>
<path d="M0 0 C1.21899461 -0.00507454 2.43798922 -0.01014909 3.69392306 -0.0153774 C5.05379391 -0.01597909 6.41366481 -0.01647817 7.77353573 -0.01688576 C9.2126793 -0.02090015 10.65182175 -0.02533833 12.09096283 -0.03016531 C16.05542867 -0.04213952 20.01988234 -0.04778124 23.98436272 -0.05234647 C28.25653294 -0.05829943 32.52868857 -0.06991011 36.80084896 -0.08063698 C47.12379501 -0.10516913 57.44674589 -0.1197899 67.76971212 -0.13269705 C70.68519404 -0.13640857 73.60067547 -0.14038184 76.51615691 -0.14444971 C94.61876053 -0.16968727 112.7213649 -0.19174162 130.82398224 -0.20417786 C135.01793642 -0.20710759 139.21189057 -0.21006924 143.40584469 -0.21308327 C144.96943803 -0.21420234 144.96943803 -0.21420234 146.56461912 -0.21534403 C163.44829137 -0.22799582 180.33185828 -0.26121591 197.21548129 -0.3028851 C214.54775546 -0.34531101 231.87997571 -0.36887371 249.21230167 -0.37409842 C258.9444504 -0.37751193 268.67643452 -0.38925998 278.40853214 -0.42220116 C286.69762721 -0.45021192 294.98652395 -0.46119652 303.27566267 -0.4500057 C307.50381225 -0.44482154 311.73154657 -0.44768972 315.95963573 -0.47247124 C319.83444147 -0.49499212 323.70853433 -0.49420243 327.5833528 -0.47526737 C328.98115358 -0.47247127 330.37900301 -0.47804429 331.77672572 -0.4930803 C340.34875819 -0.57961632 346.99986638 0.20511256 354.19270992 5.13701439 C356.44661617 7.48857689 356.44661617 7.48857689 357.75520992 9.76201439 C358.21024899 10.51740501 358.66528805 11.27279564 359.13411617 12.05107689 C362.49212554 18.66796619 362.31796645 27.01473318 360.39192867 34.07060814 C357.54960208 40.48781973 353.3926538 43.99060092 347.19270992 47.13701439 C344.00436166 48.19979714 341.73627435 48.26663788 338.38541985 48.27402878 C337.16642524 48.27910332 335.94743063 48.28417786 334.69149679 48.28940618 C333.33162594 48.29000787 331.97175504 48.29050695 330.61188412 48.29091454 C329.17274054 48.29492892 327.7335981 48.29936711 326.29445702 48.30419409 C322.32999118 48.3161683 318.36553751 48.32181001 314.40105712 48.32637525 C310.12888691 48.33232821 305.85673127 48.34393889 301.58457088 48.35466576 C291.26162484 48.37919791 280.93867396 48.39381868 270.61570773 48.40672582 C267.70022581 48.41043735 264.78474437 48.41441062 261.86926293 48.41847849 C243.76665931 48.44371604 225.66405494 48.4657704 207.56143761 48.47820663 C203.36748343 48.48113636 199.17352928 48.48409802 194.97957516 48.48711205 C193.9371796 48.4878581 192.89478403 48.48860415 191.82080073 48.4893728 C174.93712847 48.5020246 158.05356157 48.53524469 141.16993856 48.57691388 C123.83766439 48.61933979 106.50544414 48.64290249 89.17311817 48.6481272 C79.44096945 48.65154071 69.70898532 48.66328876 59.9768877 48.69622993 C51.68779263 48.72424069 43.3988959 48.7352253 35.10975718 48.72403447 C30.88160759 48.71885032 26.65387328 48.7217185 22.42578411 48.74650002 C18.55097837 48.7690209 14.67688552 48.76823121 10.80206705 48.74929614 C9.40426626 48.74650005 8.00641684 48.75207307 6.60869413 48.76710908 C-1.96333834 48.8536451 -8.61444653 48.06891622 -15.80729008 43.13701439 C-18.06119633 40.78545189 -18.06119633 40.78545189 -19.36979008 38.51201439 C-19.82482914 37.75662376 -20.2798682 37.00123314 -20.74869633 36.22295189 C-24.10670569 29.60606259 -23.9325466 21.2592956 -22.00650883 14.20342064 C-19.16418223 7.78620905 -15.00723395 4.28342786 -8.80729008 1.13701439 C-5.61894182 0.07423164 -3.3508545 0.0073909 0 0 Z " fill="#000000" transform="translate(86.80729007720947,119.86298561096191)"/>
</svg>
