<?xml version="1.0" encoding="UTF-8"?>
<svg version="1.1" xmlns="http://www.w3.org/2000/svg" width="512" height="512">
<path d="M0 0 C2.52550439 1.46715425 4.40733736 3.34702689 6.42173767 5.44624329 C7.00379725 6.02005633 7.58585682 6.59386937 8.18555456 7.18507069 C10.12096022 9.1026896 12.02651631 11.04740722 13.93334961 12.9934082 C15.31887518 14.37791569 16.70614926 15.76067524 18.09503174 17.14181519 C21.85455742 20.89051414 25.58878697 24.66351998 29.31868434 28.4416697 C33.22640907 32.39201417 37.15605025 36.32043911 41.08314514 40.25151062 C47.67237823 46.85363299 54.24663251 53.47036286 60.81079102 60.09741211 C69.23921871 68.60648459 77.6904773 77.09248448 86.1496954 85.57093525 C93.42122518 92.85906212 100.68379215 100.15610055 107.9440949 107.45540977 C109.50295175 109.02236581 111.06211957 110.58901256 112.62159419 112.15535378 C117.0655372 116.61886693 121.50470597 121.08700955 125.93582153 125.56325912 C127.27975867 126.91944293 128.62537821 128.27396184 129.97278023 129.62670326 C131.80893493 131.47081917 133.63881802 133.32093638 135.46714783 135.17280579 C136.00380678 135.70909601 136.54046573 136.24538623 137.09338707 136.79792768 C140.57488329 140.34282368 142.72901427 142.92244272 143.375 147.875 C142.60995998 154.25033349 137.67889198 158.61853515 133.30256653 162.99177551 C132.73788514 163.56381027 132.17320376 164.13584504 131.59141082 164.72521418 C129.70864995 166.6299022 127.81888494 168.52747606 125.92895508 170.42504883 C124.57315757 171.79338607 123.21773915 173.16209902 121.8626709 174.53115845 C117.42214985 179.01361763 112.97108176 183.48552995 108.51953125 187.95703125 C106.98549954 189.4991616 105.45153566 191.04135942 103.91763878 192.58362389 C96.71412777 199.82519644 89.50583525 207.06196722 82.29161531 214.2928713 C73.96836589 222.63568995 65.66195665 230.99481926 57.36937219 239.3681162 C50.95353052 245.84425008 44.52243894 252.304982 38.07969588 258.75435275 C34.23372226 262.60502818 30.39464772 266.46203555 26.57154274 270.33542824 C22.97660431 273.97689012 19.36313517 277.59887982 15.73459625 281.20685196 C14.40743324 282.5330233 13.08707764 283.86604817 11.77419853 285.20636177 C9.97823307 287.03773315 8.15917925 288.84263039 6.33235168 290.6431427 C5.82045392 291.17697895 5.30855616 291.71081521 4.78114635 292.26082832 C1.04884647 295.86493122 -1.99172597 296.69469682 -6.97311002 297.0794403 C-10.07314251 296.95794012 -11.69480074 296.03399934 -14 294 C-16.12738138 291.28575479 -16.92909561 289.4760723 -17.4375 286.0625 C-16.55778635 279.90450446 -11.938346 275.64658884 -7.65960693 271.4190979 C-7.13349453 270.89127665 -6.60738213 270.3634554 -6.06532693 269.81963956 C-4.31355943 268.06459621 -2.55477455 266.31676456 -0.79589844 264.56884766 C0.46618902 263.30732473 1.72783549 262.04536048 2.98907471 260.7829895 C6.40575303 257.36573828 9.82855469 253.95468085 13.25249958 250.54471254 C16.83286469 246.97686521 20.4075522 243.40333861 23.98284912 239.83041382 C30.75024597 233.06922864 37.52272411 226.31315714 44.29704833 219.55891359 C52.01073912 211.86759147 59.71873946 204.17057734 67.42627001 196.47308278 C83.27786191 180.64238581 99.13657695 164.81884072 115 149 C113.42506133 145.1488659 110.8269137 142.55718874 107.91357422 139.68652344 C107.3905818 139.1632333 106.86758938 138.63994316 106.3287487 138.10079575 C104.57543297 136.34886876 102.81507483 134.60419394 101.0546875 132.859375 C99.79612627 131.60465211 98.53801964 130.34947309 97.28033447 129.09387207 C94.57126661 126.3911273 91.85912207 123.69152157 89.14459229 120.9942627 C84.8537901 116.73048383 80.5706074 112.45910629 76.28857422 108.18652344 C67.19827262 99.11843144 58.09956545 90.05879454 49 81 C39.17682088 71.22083397 29.35507432 61.44025578 19.54305458 51.6498909 C15.2846751 47.40148735 11.021463 43.15801129 6.7545166 38.91821289 C4.10288782 36.2814853 1.45539334 33.64063654 -1.19098663 30.99864197 C-2.42037639 29.77300159 -3.65149646 28.54909405 -4.88445282 27.32704163 C-6.56546554 25.66043093 -8.24022596 23.98777739 -9.91357422 22.31347656 C-10.40442568 21.82981503 -10.89527714 21.34615349 -11.40100288 20.84783554 C-14.45151005 17.77863802 -16.88289443 15.21719884 -17.1171875 10.78125 C-16.71333204 6.97719214 -16.46265484 4.61687312 -14.125 1.5 C-9.56639914 -1.7178359 -5.20313523 -1.33730212 0 0 Z " fill="#000000" transform="translate(193,108)"/>
</svg>
