<?xml version="1.0" standalone="no"?>
<!DOCTYPE svg PUBLIC "-//W3C//DTD SVG 20010904//EN"
 "http://www.w3.org/TR/2001/REC-SVG-20010904/DTD/svg10.dtd">
<svg version="1.0" xmlns="http://www.w3.org/2000/svg"
 width="512.000000pt" height="512.000000pt" viewBox="0 0 512.000000 512.000000"
 preserveAspectRatio="xMidYMid meet">

<g transform="translate(0.000000,512.000000) scale(0.100000,-0.100000)"
fill="#6a5f5f" stroke="none">
<path d="M831 4844 c-161 -43 -298 -156 -369 -304 -22 -47 -45 -112 -51 -144
-15 -83 -15 -3589 0 -3672 6 -32 29 -97 51 -144 72 -150 209 -262 373 -305 52
-13 234 -15 1506 -15 1442 0 1446 0 1472 20 15 12 31 38 37 58 6 24 10 296 10
763 l0 727 68 12 c141 27 299 97 410 182 125 97 249 258 310 403 52 125 67
211 66 375 -1 124 -5 170 -22 231 -51 188 -141 338 -280 470 -136 128 -289
209 -464 245 l-88 19 0 490 c0 305 -4 504 -10 527 -6 20 -22 46 -37 58 -26 20
-30 20 -1477 19 -1239 0 -1459 -2 -1505 -15z m2809 -639 l0 -445 -26 0 c-14 0
-62 -9 -107 -21 -281 -71 -528 -279 -649 -547 -58 -127 -81 -240 -81 -397 0
-119 4 -155 27 -240 67 -257 237 -477 467 -608 90 -51 233 -102 317 -113 l52
-7 0 -208 0 -209 -1397 -2 -1398 -3 -66 -26 c-36 -14 -87 -40 -112 -57 l-47
-31 2 1542 3 1542 28 60 c47 102 141 180 244 204 21 5 645 9 1391 10 l1352 1
0 -445z m310 -685 c359 -101 590 -442 549 -809 -31 -269 -199 -500 -445 -612
-176 -80 -409 -81 -599 -2 -204 85 -375 278 -434 491 -119 429 152 862 594
948 92 18 239 11 335 -16z m-310 -2685 l0 -355 -1377 2 -1378 3 -55 26 c-70
33 -141 103 -177 177 -24 49 -28 69 -28 142 0 75 4 93 32 150 46 97 114 160
206 191 49 17 133 18 1415 19 l1362 0 0 -355z"/>
<path d="M3515 3181 c-11 -5 -29 -19 -40 -31 -19 -21 -20 -38 -23 -339 -2
-174 0 -327 3 -339 10 -41 53 -72 99 -72 50 0 83 21 102 66 17 42 20 586 3
647 -16 60 -84 92 -144 68z"/>
<path d="M3894 3180 c-12 -4 -31 -21 -43 -36 -20 -26 -21 -35 -21 -346 0 -215
4 -326 11 -341 19 -38 51 -57 97 -57 35 0 49 6 73 29 l29 29 0 332 c0 208 -4
338 -10 351 -22 39 -88 59 -136 39z"/>
</g>
</svg>
