<?xml version="1.0" standalone="no"?>
<!DOCTYPE svg PUBLIC "-//W3C//DTD SVG 20010904//EN"
 "http://www.w3.org/TR/2001/REC-SVG-20010904/DTD/svg10.dtd">
<svg version="1.0" xmlns="http://www.w3.org/2000/svg"
 width="512.000000pt" height="512.000000pt" viewBox="0 0 512.000000 512.000000"
 preserveAspectRatio="xMidYMid meet">

<g transform="translate(0.000000,512.000000) scale(0.100000,-0.100000)"
fill="#000000" stroke="none">
<path d="M2245 5109 c-312 -32 -568 -105 -850 -244 -511 -251 -889 -628 -1140
-1140 -185 -375 -267 -755 -252 -1165 15 -389 96 -704 272 -1050 244 -478 625
-851 1120 -1095 294 -145 550 -216 886 -246 155 -14 393 -7 549 16 126 19 370
78 459 111 35 13 65 24 66 24 2 0 6 -21 10 -47 8 -53 41 -125 79 -170 14 -16
53 -45 88 -64 l63 -34 645 0 645 0 63 34 c70 38 100 69 140 145 l27 51 0 445
0 445 -27 51 c-40 76 -70 107 -140 144 -57 31 -72 34 -168 38 l-106 4 -12 38
c-11 37 -9 43 53 172 282 588 321 1247 109 1878 -49 146 -187 423 -281 562
-250 373 -569 652 -968 848 -302 148 -540 217 -874 250 -118 11 -338 11 -456
-1z m451 -160 c677 -66 1280 -416 1681 -977 474 -663 554 -1563 206 -2305 -25
-53 -49 -97 -53 -97 -4 0 -27 7 -50 15 -24 8 -77 15 -119 15 l-77 0 62 127
c345 694 265 1536 -204 2162 -71 95 -254 285 -349 363 -419 342 -978 512
-1514 458 -718 -73 -1345 -508 -1664 -1155 -346 -700 -267 -1538 203 -2164 71
-95 243 -273 343 -357 574 -478 1390 -605 2093 -323 54 21 100 39 102 39 2 0
4 -58 4 -129 l0 -129 -112 -40 c-630 -222 -1345 -157 -1917 175 -661 384
-1087 1043 -1160 1797 -82 843 317 1675 1034 2152 241 161 529 279 825 338
220 44 450 56 666 35z m89 -414 c528 -92 957 -362 1267 -796 80 -111 205 -357
247 -485 160 -490 127 -997 -94 -1449 -79 -162 -109 -205 -142 -205 -102 -2
-231 -108 -249 -205 l-6 -33 -106 -4 c-124 -6 -182 -27 -247 -93 -64 -63 -87
-123 -93 -237 l-5 -96 -80 -37 c-728 -333 -1583 -178 -2153 389 -462 461 -656
1118 -520 1761 75 355 259 690 520 951 308 306 689 492 1126 550 131 17 410
11 535 -11z m1673 -3115 c36 -22 56 -60 67 -127 13 -82 23 -87 188 -93 158 -5
174 -11 221 -74 20 -27 21 -39 21 -446 0 -407 -1 -419 -21 -446 -11 -15 -33
-37 -48 -48 -27 -21 -37 -21 -646 -21 -609 0 -619 0 -646 21 -15 11 -37 33
-48 48 -20 27 -21 39 -21 446 0 407 1 419 21 446 47 63 63 69 221 74 165 6
175 11 188 93 11 67 31 105 67 127 30 18 50 20 218 20 168 0 188 -2 218 -20z"/>
<path d="M2355 3990 c-145 -27 -271 -94 -381 -204 -90 -90 -143 -175 -182
-294 -22 -67 -26 -94 -25 -212 0 -119 3 -144 26 -215 34 -103 87 -191 165
-276 68 -74 69 -71 -18 -84 -74 -12 -193 -62 -266 -114 -133 -93 -230 -223
-281 -376 -25 -75 -27 -91 -27 -275 l-1 -195 32 -67 c44 -93 100 -151 191
-196 l76 -37 816 0 816 0 76 37 c91 45 147 103 191 196 l32 67 -1 195 c0 184
-2 200 -27 275 -81 245 -293 439 -530 486 -112 22 -107 14 -50 72 191 196 259
470 178 723 -35 112 -88 197 -180 289 -139 140 -284 203 -475 210 -58 2 -127
0 -155 -5z m231 -161 c192 -34 363 -189 430 -389 28 -83 26 -244 -4 -332 -60
-174 -192 -303 -372 -364 -76 -26 -244 -26 -320 0 -271 91 -432 344 -392 617
26 180 141 337 305 418 118 58 225 73 353 50z m400 -1280 c189 -34 355 -181
425 -376 28 -75 39 -327 18 -401 -17 -61 -96 -142 -155 -160 -59 -17 -1529
-17 -1588 0 -55 16 -138 99 -154 154 -15 51 -16 260 -1 340 14 77 66 187 116
247 77 93 211 175 319 195 70 14 946 15 1020 1z"/>
<path d="M4165 1031 c-92 -24 -173 -90 -215 -176 -19 -41 -24 -66 -24 -135 -1
-78 2 -90 33 -148 38 -70 70 -100 145 -140 43 -22 64 -26 136 -26 72 0 93 4
136 26 75 40 107 70 145 140 31 58 34 70 33 148 0 72 -4 93 -26 136 -39 75
-70 107 -137 143 -65 34 -164 49 -226 32z m138 -165 c103 -43 128 -177 48
-257 -65 -65 -157 -65 -222 0 -124 123 13 325 174 257z"/>
</g>
</svg>
