<?xml version="1.0" standalone="no"?>
<!DOCTYPE svg PUBLIC "-//W3C//DTD SVG 20010904//EN"
 "http://www.w3.org/TR/2001/REC-SVG-20010904/DTD/svg10.dtd">
<svg version="1.0" xmlns="http://www.w3.org/2000/svg"
 width="512.000000pt" height="512.000000pt" viewBox="0 0 512.000000 512.000000"
 preserveAspectRatio="xMidYMid meet">

<g transform="translate(0.000000,512.000000) scale(0.100000,-0.100000)"
fill="#6a5f5f" stroke="none">
<path d="M2175 5034 c-475 -52 -878 -333 -1085 -757 -106 -217 -146 -406 -137
-647 9 -225 57 -401 164 -599 l45 -84 -72 -72 -72 -73 -84 6 c-135 8 -132 10
-546 -405 -350 -352 -357 -359 -373 -417 -21 -73 -16 -146 15 -207 29 -57 321
-349 375 -375 56 -27 184 -27 240 0 49 23 715 682 750 741 35 58 49 134 36
192 l-10 48 75 76 76 76 102 -53 c202 -106 398 -154 626 -154 158 0 283 18
414 60 51 17 96 30 99 30 3 0 10 -23 16 -52 7 -28 25 -78 41 -110 17 -32 30
-61 30 -63 0 -3 -229 -5 -510 -5 -497 0 -511 -1 -530 -20 -25 -25 -26 -71 -1
-101 l19 -24 619 -5 c609 -5 619 -5 658 -27 149 -80 180 -279 60 -398 -77 -77
-52 -75 -815 -75 -763 0 -738 -2 -815 75 -103 102 -95 284 16 367 95 71 110
108 64 153 -32 33 -61 31 -116 -4 -129 -83 -198 -223 -186 -374 12 -142 107
-275 238 -331 l65 -29 -40 -80 c-40 -77 -41 -82 -41 -176 1 -113 23 -182 81
-250 20 -23 35 -43 33 -45 -2 -1 -21 -13 -41 -25 -58 -34 -134 -125 -159 -189
-19 -45 -23 -77 -24 -152 0 -86 3 -101 32 -162 36 -76 108 -155 171 -187 103
-52 48 -51 1559 -51 989 0 1419 4 1456 11 121 26 225 110 280 227 29 61 32 76
32 162 -1 117 -25 185 -92 261 -44 48 -45 52 -27 61 38 21 111 106 137 159 69
140 44 325 -58 437 l-36 41 60 60 c175 171 173 427 -5 591 -42 39 -134 90
-161 90 -18 0 -18 0 22 65 66 110 73 252 17 367 -17 34 -38 73 -47 84 -15 21
-14 23 40 53 190 107 262 339 164 532 -31 63 -101 139 -150 165 -16 8 -29 17
-29 20 0 3 13 22 30 42 116 146 109 373 -16 512 -49 55 -120 100 -156 100 -39
0 -68 -32 -68 -75 0 -30 7 -39 54 -74 87 -65 120 -125 119 -222 -1 -74 -30
-136 -86 -184 -74 -63 -88 -65 -602 -65 l-461 0 4 138 c3 98 0 168 -12 240 -9
57 -16 109 -16 117 0 13 57 15 404 15 l405 0 20 26 c12 15 21 33 21 40 0 26
-23 62 -47 73 -16 7 -157 11 -443 11 -289 0 -420 3 -420 11 0 23 -84 183 -142
271 -79 118 -245 286 -358 360 -164 108 -333 178 -512 213 -82 16 -306 27
-383 19z m370 -169 c427 -92 768 -395 905 -803 78 -234 80 -513 3 -747 -62
-190 -152 -336 -297 -481 -160 -160 -336 -262 -553 -322 -91 -24 -112 -26
-298 -26 -184 0 -208 2 -298 27 -539 145 -907 622 -907 1176 0 565 411 1065
967 1175 43 8 94 17 113 20 65 8 295 -4 365 -19z m2197 -1527 c54 -16 132 -88
153 -140 22 -55 22 -141 0 -196 -22 -55 -101 -126 -157 -141 -31 -8 -219 -11
-700 -9 l-657 3 45 65 c62 89 138 244 170 346 l26 84 541 0 c388 0 551 -3 579
-12z m-3390 -616 l98 -98 -60 -59 -60 -59 -100 99 -100 100 57 57 c32 32 60
58 63 58 3 0 49 -44 102 -98z m3266 -56 c146 -81 177 -262 65 -386 -80 -89
-40 -85 -828 -85 -763 0 -720 -4 -799 65 -20 18 -46 51 -58 73 -21 43 -35 144
-21 163 4 6 42 33 83 61 41 28 99 72 129 97 l53 47 662 -3 661 -3 53 -29z
m-3501 -158 c99 -99 157 -163 164 -185 22 -68 9 -85 -325 -422 -171 -172 -329
-326 -350 -342 -29 -22 -50 -29 -84 -29 -45 0 -46 1 -204 157 -165 164 -179
186 -163 250 7 30 634 669 690 704 18 11 48 19 74 19 44 0 46 -2 198 -152z
m3703 -489 c161 -73 200 -280 75 -404 -77 -77 -52 -75 -814 -75 -372 0 -685 3
-696 6 -20 5 -20 8 13 73 57 116 54 265 -10 368 -10 18 -17 37 -13 43 4 7 241
10 703 10 680 0 698 -1 742 -21z m-1455 -655 c114 -61 166 -178 132 -295 -20
-67 -72 -130 -132 -158 -44 -21 -52 -21 -745 -21 -772 0 -733 -3 -808 64 -138
125 -93 355 84 420 33 13 149 15 734 13 690 -2 695 -2 735 -23z m1411 -1 c48
-26 101 -83 121 -131 8 -19 14 -60 14 -91 1 -101 -47 -182 -133 -225 l-52 -26
-574 0 c-315 0 -572 3 -570 8 56 110 69 146 74 203 8 79 -14 174 -56 242 l-30
48 583 -3 c577 -3 582 -3 623 -25z m-1535 -644 c51 -23 107 -75 132 -123 30
-57 30 -165 0 -221 -27 -51 -67 -91 -118 -119 -40 -21 -43 -21 -745 -21 l-705
0 -53 29 c-28 16 -64 44 -78 63 -114 150 -30 371 153 403 26 4 347 7 713 7
590 -2 669 -4 701 -18z m1460 0 c164 -75 210 -283 90 -407 -79 -81 -40 -77
-723 -80 l-608 -3 30 48 c33 54 60 147 60 208 0 57 -25 149 -55 199 -14 24
-25 46 -25 50 0 4 269 6 598 4 525 -3 601 -5 633 -19z"/>
<path d="M2098 4641 c-280 -61 -526 -249 -659 -504 -92 -177 -128 -359 -108
-550 23 -229 108 -412 269 -581 85 -89 164 -148 265 -198 155 -77 265 -103
445 -102 164 0 269 23 408 89 120 57 198 113 293 211 179 185 270 407 272 664
0 69 -5 153 -12 187 -73 376 -352 677 -716 774 -116 31 -338 36 -457 10z m377
-146 c252 -54 461 -216 575 -448 60 -122 82 -218 83 -362 1 -239 -84 -438
-257 -602 -341 -324 -871 -304 -1187 45 -225 249 -277 630 -127 925 113 223
327 388 573 442 81 18 255 18 340 0z"/>
<path d="M2528 4275 c-74 -24 -115 -73 -228 -274 l-103 -185 -26 35 c-76 102
-164 148 -258 135 -84 -11 -166 -73 -197 -148 -22 -51 -20 -143 3 -193 24 -54
323 -438 364 -468 93 -70 248 -58 324 24 22 24 390 670 424 744 22 48 25 142
5 189 -49 117 -186 180 -308 141z m150 -170 c44 -51 37 -68 -174 -442 -108
-192 -205 -356 -216 -365 -12 -11 -36 -18 -58 -18 -21 0 -47 8 -59 18 -11 9
-88 105 -171 212 -130 169 -150 200 -150 231 0 71 74 119 133 87 14 -7 51 -47
83 -88 89 -117 104 -130 140 -130 44 0 57 18 204 279 82 146 134 228 150 237
35 20 90 10 118 -21z"/>
</g>
</svg>
