<?xml version="1.0" standalone="no"?>
<!DOCTYPE svg PUBLIC "-//W3C//DTD SVG 20010904//EN"
 "http://www.w3.org/TR/2001/REC-SVG-20010904/DTD/svg10.dtd">
<svg version="1.0" xmlns="http://www.w3.org/2000/svg"
 width="512.000000pt" height="512.000000pt" viewBox="0 0 512.000000 512.000000"
 preserveAspectRatio="xMidYMid meet">

<g transform="translate(0.000000,512.000000) scale(0.100000,-0.100000)"
fill="#6a5f5f" stroke="none">
<path d="M2055 5108 c-91 -17 -211 -83 -284 -156 -108 -109 -161 -236 -161
-389 0 -107 14 -171 57 -263 33 -70 56 -96 367 -408 233 -235 346 -342 381
-360 44 -24 61 -27 145 -27 85 0 100 3 146 28 66 37 530 500 539 539 6 22 1
33 -24 59 -26 25 -37 30 -59 24 -17 -4 -114 -93 -267 -245 -132 -131 -253
-244 -268 -249 -39 -15 -102 -14 -140 3 -18 8 -170 153 -344 327 -283 285
-315 320 -345 384 -31 66 -33 76 -33 180 0 102 2 115 31 176 79 167 261 262
440 232 88 -15 162 -53 233 -119 79 -73 100 -72 183 2 185 166 431 163 593 -7
78 -81 108 -151 113 -262 4 -71 0 -100 -18 -157 -27 -84 -22 -116 22 -134 46
-20 86 -3 105 43 45 105 56 256 28 365 -37 143 -149 288 -273 354 -74 40 -196
72 -271 72 -121 -1 -251 -44 -344 -115 l-46 -35 -48 34 c-141 100 -295 135
-458 104z"/>
<path d="M1229 4276 c-102 -36 -138 -97 -146 -245 l-6 -100 -131 66 c-118 60
-137 66 -191 67 -111 0 -199 -65 -230 -168 -10 -32 -15 -93 -15 -171 l0 -122
-52 14 c-123 33 -276 -11 -357 -103 -78 -89 -105 -182 -99 -341 3 -105 21
-136 77 -136 59 0 68 19 73 162 3 122 5 131 33 177 41 67 118 108 190 100 28
-2 210 -46 405 -95 195 -50 596 -152 890 -227 294 -74 543 -137 553 -140 16
-5 17 -82 17 -1426 0 -1268 -2 -1420 -15 -1414 -14 5 -329 85 -1515 386 -217
55 -412 108 -433 117 -51 22 -102 83 -116 138 -8 30 -11 338 -11 1009 0 953 0
966 -20 986 -27 27 -81 26 -106 -1 -18 -20 -19 -53 -22 -983 -2 -689 0 -978 8
-1021 23 -116 97 -216 195 -261 28 -13 504 -139 1060 -281 l1010 -258 270 -3
269 -3 596 151 c673 171 686 175 700 200 24 45 6 96 -42 113 -12 4 -1059 -253
-1167 -288 l-21 -6 0 1420 c0 782 1 1421 3 1421 2 0 303 76 668 169 1107 282
1183 301 1215 301 55 0 136 -50 169 -104 l30 -49 3 -1226 c2 -867 0 -1241 -8
-1277 -13 -62 -62 -123 -117 -147 -21 -9 -137 -42 -258 -73 -121 -31 -228 -60
-238 -66 -48 -25 -40 -106 12 -128 24 -10 63 -2 279 54 138 36 265 72 283 82
50 26 129 104 154 154 12 25 28 69 34 98 14 68 16 2438 1 2526 -27 168 -159
289 -326 302 -44 3 -88 0 -121 -9 l-53 -14 0 97 c0 57 -6 117 -15 148 -35 116
-138 195 -258 196 -57 1 -74 -4 -180 -56 l-117 -57 0 63 c0 185 -65 279 -203
293 -44 4 -60 1 -104 -24 -34 -18 -241 -207 -609 -555 -307 -291 -561 -528
-564 -528 -3 0 -259 240 -569 533 -391 369 -577 539 -610 554 -52 26 -99 28
-152 9z m480 -503 c214 -203 388 -369 386 -371 -1 -1 -195 98 -431 221 l-429
224 0 125 c0 110 2 129 19 147 11 12 29 21 42 21 17 0 132 -103 413 -367z
m2157 346 c17 -18 19 -37 19 -147 l0 -125 -429 -224 c-236 -123 -430 -222
-431 -221 -2 2 172 168 387 371 278 262 396 367 412 367 13 0 31 -9 42 -21z
m-2381 -572 c381 -199 693 -363 691 -364 -2 -2 -471 116 -1291 326 l-220 56
-3 125 c-4 152 6 196 51 216 18 7 42 11 55 9 12 -3 335 -168 717 -368z m2921
327 c42 -28 54 -70 54 -193 0 -60 -3 -112 -8 -114 -10 -7 -1505 -387 -1508
-384 -2 2 717 379 1230 645 151 78 175 83 232 46z m-1676 -2304 l0 -1420 -170
0 -170 0 0 1420 0 1420 170 0 170 0 0 -1420z"/>
<path d="M4535 2974 c-71 -19 -395 -102 -720 -185 -344 -87 -597 -156 -607
-166 -27 -24 -24 -88 4 -107 12 -9 33 -16 46 -16 21 0 995 243 1354 338 118
31 148 50 148 94 0 35 -40 78 -72 77 -13 0 -81 -16 -153 -35z"/>
<path d="M3943 2486 c-262 -68 -398 -107 -412 -120 -29 -26 -27 -71 4 -101 13
-14 30 -25 38 -25 20 0 798 198 825 210 68 30 36 143 -40 139 -13 -1 -199 -47
-415 -103z"/>
</g>
</svg>
